<?xml version="1.0" encoding="UTF-8"?>
<svg version="1.1" xmlns="http://www.w3.org/2000/svg" width="338" height="338">
<path d="M0 0 C111.54 0 223.08 0 338 0 C338 111.54 338 223.08 338 338 C226.46 338 114.92 338 0 338 C0 226.46 0 114.92 0 0 Z " fill="#3F3F40" transform="translate(0,0)"/>
<path d="M0 0 C2.875 1.5 2.875 1.5 5 3 C4.6875 4.9375 4.6875 4.9375 4 7 C3.01 7.33 2.02 7.66 1 8 C1 7.34 1 6.68 1 6 C-1.05990478 7.29467677 -1.05990478 7.29467677 -3 9 C-3 9.99 -3 10.98 -3 12 C-3.99 12.33 -4.98 12.66 -6 13 C-5.95187012 24.52710703 -0.13697542 30.88126382 7.0703125 39.34765625 C11.98141352 46.09793478 13.72390571 51.64633105 13.625 60 C13.62242187 60.90903076 13.61984375 61.81806152 13.6171875 62.75463867 C13.3682416 71.63967341 10.7811682 79.0437919 7 87 C7.55086305 86.84142958 8.10172609 86.68285915 8.66928196 86.51948357 C11.24859275 85.94459225 13.65052021 85.79015974 16.29148865 85.68826294 C17.87755338 85.62632657 17.87755338 85.62632657 19.49565983 85.56313896 C20.63976542 85.52441736 21.78387102 85.48569576 22.96264648 85.44580078 C24.16260726 85.40369036 25.36256804 85.36157993 26.59889126 85.31819344 C39.93161362 84.885888 53.25921811 84.85485125 66.59765625 84.8671875 C69.22228504 84.86651159 71.84691378 84.8655392 74.47154236 84.86428833 C79.90412926 84.86249428 85.33670233 84.86480561 90.76928711 84.86962891 C97.04379289 84.87513539 103.3182665 84.87325233 109.59277159 84.8678025 C115.67916102 84.86272955 121.76553615 84.86324855 127.8519268 84.86618423 C130.42644696 84.86685153 133.00096794 84.86603195 135.57548714 84.86370468 C139.14287687 84.86118058 142.71020294 84.86501204 146.27758789 84.87060547 C147.34071701 84.86858124 148.40384613 84.86655701 149.49919128 84.86447144 C150.9467128 84.86870117 150.9467128 84.86870117 152.42347717 84.87301636 C153.26411241 84.87339338 154.10474764 84.87377041 154.97085667 84.87415886 C157 85 157 85 159 86 C159 120.98 159 155.96 159 192 C92.67 192 26.34 192 -42 192 C-42 137.50107296 -42 137.50107296 -34.25 122.5 C-33.93417969 121.85675781 -33.61835938 121.21351563 -33.29296875 120.55078125 C-32.54244065 119.02698177 -31.77351306 117.5122615 -31 116 C-37.45462707 120.02630864 -40.03413239 124.29382415 -41.76147461 131.66625977 C-42.20881568 133.77222361 -42.6102995 135.8826273 -43 138 C-43.15339844 138.80244141 -43.30679688 139.60488281 -43.46484375 140.43164062 C-43.93709866 142.95098397 -44.38209497 145.47318535 -44.8125 148 C-44.94889893 148.78858398 -45.08529785 149.57716797 -45.22583008 150.38964844 C-46.13780093 156.27276677 -45.905219 161.28434299 -44 167 C-43.91733514 168.91906917 -43.89259337 170.84089474 -43.90234375 172.76171875 C-43.90717773 174.43911133 -43.90717773 174.43911133 -43.91210938 176.15039062 C-43.92467773 177.90125977 -43.92467773 177.90125977 -43.9375 179.6875 C-43.94201172 180.86634766 -43.94652344 182.04519531 -43.95117188 183.25976562 C-43.96296727 186.17322789 -43.9794273 189.08658863 -44 192 C-46.31 192 -48.62 192 -51 192 C-58.88675725 150.47391579 -58.88675725 150.47391579 -49 131 C-48.67 130.34 -48.34 129.68 -48 129 C-49.65 129 -51.3 129 -53 129 C-53.10957031 129.72703125 -53.21914062 130.4540625 -53.33203125 131.203125 C-54.18078557 136.58546947 -55.17206926 141.80853717 -56.625 147.0625 C-59.04185227 156.55727676 -58.17803122 164.52987857 -55.75390625 173.95703125 C-54.1815282 180.30357269 -54 185.24263363 -54 192 C-87.99 192 -121.98 192 -157 192 C-157.020625 182.55375 -157.04125 173.1075 -157.0625 163.375 C-157.071604 160.46349121 -157.08070801 157.55198242 -157.09008789 154.55224609 C-157.11541499 140.10238601 -156.92816637 125.69026056 -156.35255432 111.25082397 C-156.06941948 104.04904002 -155.98055686 96.88062888 -156.08021545 89.67318726 C-156 87 -156 87 -155 86 C-152.59532071 85.8393059 -150.21642005 85.7402527 -147.80859375 85.68359375 C-147.0710939 85.66281265 -146.33359406 85.64203156 -145.57374573 85.62062073 C-143.99917636 85.57723136 -142.42454041 85.53620549 -140.84985352 85.49731445 C-138.49933564 85.43903322 -136.14911435 85.37355003 -133.79882812 85.30664062 C-118.35025295 84.88325477 -102.94398926 84.95145306 -87.5 85.5 C-86.0794355 85.54842464 -84.65886257 85.59660253 -83.23828125 85.64453125 C-79.82541958 85.76019736 -76.41268179 85.87912883 -73 86 C-73 86.66 -73 87.32 -73 88 C-68.93602382 84.54129687 -65.00025259 81.04823885 -61.3125 77.1875 C-53.63155342 69.41601181 -40.68714338 56.98880875 -29.3125 56.375 C-23.21727013 56.84799844 -19.04491516 59.5554989 -15.125 64.125 C-12.46081876 67.7294805 -11.87487171 69.24101954 -11.9375 73.625 C-11.94652344 74.44226563 -11.95554688 75.25953125 -11.96484375 76.1015625 C-11.98224609 77.04128906 -11.98224609 77.04128906 -12 78 C-8.08407293 77.11001657 -6.32993724 76.40325663 -3.75 73.25 C0.32232098 65.68711818 1.06033011 58.48264091 0 50 C-1.48648339 46.23353674 -3.57517343 43.22427813 -6 40 C-7.23145521 38.23075738 -8.46063483 36.45992863 -9.6875 34.6875 C-10.24824219 33.90761719 -10.80898437 33.12773438 -11.38671875 32.32421875 C-16.24411914 25.32626904 -18.13002441 19.56507141 -17 11 C-15.25379569 6.52158809 -13.02932757 3.70081877 -9.0625 1 C-5.72783811 -0.08886919 -3.48018143 -0.44427848 0 0 Z " fill="#ADA07E" transform="translate(168,22)"/>
<path d="M0 0 C104.94 0 209.88 0 318 0 C318 36.96 318 73.92 318 112 C317.67 112 317.34 112 317 112 C317 107.71 317 103.42 317 99 C301.75895547 98.97661156 286.51791307 98.95888511 271.27685452 98.94818783 C264.1963635 98.94308361 257.115884 98.9361566 250.03540039 98.92456055 C243.8468438 98.91443029 237.65829557 98.9081042 231.46973091 98.90591151 C228.20858835 98.90463466 224.94747453 98.90118109 221.68633842 98.89426994 C202.76864342 98.85585121 183.90164818 99.28255313 165 100 C165.58264378 96.18901089 166.24251542 93.32306271 168.0625 89.9375 C171.76298654 80.95255483 171.73800619 68.87934907 169 59.6171875 C165.76377016 53.31021685 160.81258434 48.13741007 156.21484375 42.79296875 C152.63138404 38.27414389 151.31983939 34.42164112 150.5625 28.6875 C151 26 151 26 153 24.125 C153.66 23.75375 154.32 23.3825 155 23 C154.67 22.34 154.34 21.68 154 21 C156.475 20.01 156.475 20.01 159 19 C159 19.66 159 20.32 159 21 C159.99 20.34 160.98 19.68 162 19 C162 18.01 162 17.02 162 16 C158.89424795 14.15352782 157.00197682 13.81190512 153.4375 14.3125 C152.67308594 14.41175781 151.90867188 14.51101562 151.12109375 14.61328125 C148.82240377 14.9808987 148.82240377 14.9808987 146 16 C144.87483915 17.83284443 144.87483915 17.83284443 144 20 C143.65710938 20.60585938 143.31421875 21.21171875 142.9609375 21.8359375 C140.76859768 26.77315807 141.50805453 32.40841172 143.0625 37.4375 C146.88121979 45.09295241 152.05235249 52.14960141 156.8359375 59.22265625 C160.31975775 64.54191201 159.48383673 70.84930841 159 77 C157.56592777 82.23101995 154.97609223 87.26488305 151 91 C148.25 91.3125 148.25 91.3125 146 91 C145.96132813 90.12988281 145.96132813 90.12988281 145.921875 89.2421875 C145.42430216 82.38925248 143.65174768 78.39304059 138.4375 73.6875 C134.78390973 71.15809135 131.22817032 70.34523333 126.77734375 70.41015625 C112.53308974 73.43530724 98.58295316 89.03627024 88.92578125 99.19921875 C87 101 87 101 85 101 C85 100.34 85 99.68 85 99 C84.50790039 99.16749756 84.01580078 99.33499512 83.50878906 99.50756836 C79.95094852 100.20591055 76.46244289 100.00701459 72.859375 99.87890625 C72.05953186 99.85529526 71.25968872 99.83168427 70.43560791 99.80735779 C67.87354626 99.73098117 65.31179883 99.64720152 62.75 99.5625 C46.47217782 99.04516968 30.27912588 98.73172493 14 99.5 C12.39125 99.57154297 12.39125 99.57154297 10.75 99.64453125 C8.1665062 99.75986579 5.58320254 99.87834617 3 100 C3.01160156 101.24910156 3.02320313 102.49820313 3.03515625 103.78515625 C3.04456327 105.54426929 3.05366022 107.30338401 3.0625 109.0625 C3.07506836 110.27583008 3.07506836 110.27583008 3.08789062 111.51367188 C3.11221694 118.10610208 2.84549261 124.66724603 2.53125 131.25 C1.83392436 146.13980815 1.65340577 161.03435179 1.4375 175.9375 C1.293125 185.528125 1.14875 195.11875 1 205 C34.99 205 68.98 205 104 205 C102.89918529 190.55465724 102.89918529 190.55465724 99 177 C98.36715942 169.22978821 99.51659244 162.03354921 101.3125 154.5 C101.52583984 153.52546875 101.73917969 152.5509375 101.95898438 151.546875 C103.83985545 143.4170203 103.83985545 143.4170203 107 141 C109.1875 141.3125 109.1875 141.3125 111 142 C110.73445313 142.50789062 110.46890625 143.01578125 110.1953125 143.5390625 C102.1969605 159.12709157 102.68560345 176.06597932 105.93261719 192.93505859 C106.71870274 197.02513079 107.1574564 200.83396597 107 205 C109.31 205 111.62 205 114 205 C113.8896357 200.95779519 113.75911994 196.91648085 113.625 192.875 C113.5940625 191.73289063 113.563125 190.59078125 113.53125 189.4140625 C113.49257812 188.30546875 113.45390625 187.196875 113.4140625 186.0546875 C113.36693115 184.53077393 113.36693115 184.53077393 113.31884766 182.97607422 C112.97383766 179.75580476 112.0804653 177.04357936 111 174 C110.63929676 166.95426336 112.54035571 159.70290105 113.875 152.8125 C114.03629395 151.96929199 114.19758789 151.12608398 114.36376953 150.25732422 C116.12168953 141.57002801 118.08714075 134.88328446 125 129 C125.66 129 126.32 129 127 129 C126.42997149 132.57677227 125.48322304 135.18249358 123.6875 138.3125 C113.23351504 160.43604956 117 179.56130503 117 205 C216.495 205.495 216.495 205.495 318 206 C317.67 206.66 317.34 207.32 317 208 C317.08780403 210.04498425 317.24241538 212.08744948 317.4375 214.125 C317.53933594 215.22070312 317.64117187 216.31640625 317.74609375 217.4453125 C317.87177734 218.70988281 317.87177734 218.70988281 318 220 C291.63574425 220.15391588 265.27146116 220.30194879 238.9071331 220.4429636 C226.66593581 220.50857547 214.42475483 220.57611793 202.18359375 220.64819336 C191.51515507 220.71100378 180.84670354 220.77020406 170.17822087 220.82505554 C164.5285122 220.85422968 158.87882659 220.88522085 153.22915268 220.92053413 C147.91216483 220.95371095 142.59517315 220.98206277 137.27813911 221.00670624 C135.32622989 221.01660493 133.3743287 221.02826992 131.42244148 221.04183006 C128.75769065 221.0600787 126.09298378 221.07197405 123.42819214 221.08229065 C122.65580668 221.08909444 121.88342123 221.09589823 121.08763015 221.10290819 C116.94826831 221.1114989 113.0601788 220.81237925 109 220 C109.01160156 221.26457031 109.02320312 222.52914062 109.03515625 223.83203125 C109.04453566 225.49218602 109.0536357 227.15234239 109.0625 228.8125 C109.07087891 229.64587891 109.07925781 230.47925781 109.08789062 231.33789062 C109.09272461 232.54155273 109.09272461 232.54155273 109.09765625 233.76953125 C109.10289307 234.50792236 109.10812988 235.24631348 109.11352539 236.00708008 C109 238 109 238 108 241 C110.31 241 112.62 241 115 241 C114.96519531 240.37351563 114.93039063 239.74703125 114.89453125 239.1015625 C114.86746094 238.28429687 114.84039062 237.46703125 114.8125 236.625 C114.76029297 235.40683594 114.76029297 235.40683594 114.70703125 234.1640625 C114.80371094 233.44992188 114.90039062 232.73578125 115 232 C115.99 231.34 116.98 230.68 118 230 C118 233.63 118 237.26 118 241 C184 241 250 241 318 241 C318 241.66 318 242.32 318 243 C248.04 243.33 178.08 243.66 106 244 C105.67 244.66 105.34 245.32 105 246 C104.67 245.34 104.34 244.68 104 244 C70.01 243.67 36.02 243.34 1 243 C1 242.34 1 241.68 1 241 C35.32 241 69.64 241 105 241 C105 240.34 105 239.68 105 239 C70.68 239 36.36 239 1 239 C1 236.03 1 233.06 1 230 C35.98 230 70.96 230 107 230 C106.67 226.7 106.34 223.4 106 220 C71.35 220 36.7 220 1 220 C1 219.34 1 218.68 1 218 C35.65 218 70.3 218 106 218 C105.67 214.7 105.34 211.4 105 208 C70.35 208 35.7 208 0 208 C0 139.36 0 70.72 0 0 Z " fill="#1C1B1C" transform="translate(10,9)"/>
<path d="M0 0 C111.54 0 223.08 0 338 0 C338 111.54 338 223.08 338 338 C226.46 338 114.92 338 0 338 C0 226.46 0 114.92 0 0 Z M10 8 C10 94.79 10 181.58 10 271 C43 271 76 271 110 271 C110 274.63 110 278.26 110 282 C110.33 282.66 110.66 283.32 111 284 C77.67 284 44.34 284 10 284 C10 291.59 10 299.18 10 307 C46.96 306.67 83.92 306.34 122 306 C122 309.63 122 313.26 122 317 C85.37 317 48.74 317 11 317 C11 317.99 11 318.98 11 320 C47.63 320 84.26 320 122 320 C122 323.63 122 327.26 122 331 C124.64 331 127.28 331 130 331 C130 327.7 130 324.4 130 321 C195.67 321 261.34 321 329 321 C329 217.71 329 114.42 329 8 C223.73 8 118.46 8 10 8 Z " fill="#EDEDEC" transform="translate(0,0)"/>
<path d="M0 0 C2.875 1.5 2.875 1.5 5 3 C4.6875 4.9375 4.6875 4.9375 4 7 C3.01 7.33 2.02 7.66 1 8 C1 7.34 1 6.68 1 6 C-1.05990478 7.29467677 -1.05990478 7.29467677 -3 9 C-3 9.99 -3 10.98 -3 12 C-3.99 12.33 -4.98 12.66 -6 13 C-5.95187012 24.52710703 -0.13697542 30.88126382 7.0703125 39.34765625 C12.04453089 46.18468922 13.70439374 51.72862804 13.5625 60.1875 C13.54606445 61.57787476 13.54606445 61.57787476 13.52929688 62.99633789 C13.28399497 70.81261048 11.65739571 77.05094814 8 84 C7.43023437 85.15886719 6.86046875 86.31773438 6.2734375 87.51171875 C-0.50633425 100.72655837 -10.54473373 109.14814456 -23 117 C-28.67068734 120.73728823 -32.03710948 123.82731141 -35 130 C-36.06528748 127.26980214 -36.07998186 126.20701188 -35.00390625 123.421875 C-34.52824219 122.54015625 -34.05257812 121.6584375 -33.5625 120.75 C-32.85287109 119.41195312 -32.85287109 119.41195312 -32.12890625 118.046875 C-31.75636719 117.37140625 -31.38382812 116.6959375 -31 116 C-37.45462707 120.02630864 -40.03413239 124.29382415 -41.76147461 131.66625977 C-42.20881568 133.77222361 -42.6102995 135.8826273 -43 138 C-43.15339844 138.80244141 -43.30679688 139.60488281 -43.46484375 140.43164062 C-43.93709866 142.95098397 -44.38209497 145.47318535 -44.8125 148 C-44.94889893 148.78858398 -45.08529785 149.57716797 -45.22583008 150.38964844 C-46.13780093 156.27276677 -45.905219 161.28434299 -44 167 C-43.91733514 168.91906917 -43.89259337 170.84089474 -43.90234375 172.76171875 C-43.90717773 174.43911133 -43.90717773 174.43911133 -43.91210938 176.15039062 C-43.92467773 177.90125977 -43.92467773 177.90125977 -43.9375 179.6875 C-43.94201172 180.86634766 -43.94652344 182.04519531 -43.95117188 183.25976562 C-43.96296727 186.17322789 -43.9794273 189.08658863 -44 192 C-46.31 192 -48.62 192 -51 192 C-58.88675725 150.47391579 -58.88675725 150.47391579 -49 131 C-48.67 130.34 -48.34 129.68 -48 129 C-49.65 129 -51.3 129 -53 129 C-53.10957031 129.72703125 -53.21914062 130.4540625 -53.33203125 131.203125 C-54.18078557 136.58546947 -55.17206926 141.80853717 -56.625 147.0625 C-59.04185227 156.55727676 -58.17803122 164.52987857 -55.75390625 173.95703125 C-54.1815282 180.30357269 -54 185.24263363 -54 192 C-87.99 192 -121.98 192 -157 192 C-157.020625 182.55375 -157.04125 173.1075 -157.0625 163.375 C-157.071604 160.46349121 -157.08070801 157.55198242 -157.09008789 154.55224609 C-157.11541499 140.10238601 -156.92816637 125.69026056 -156.35255432 111.25082397 C-156.06941948 104.04904002 -155.98055686 96.88062888 -156.08021545 89.67318726 C-156 87 -156 87 -155 86 C-152.59532071 85.8393059 -150.21642005 85.7402527 -147.80859375 85.68359375 C-147.0710939 85.66281265 -146.33359406 85.64203156 -145.57374573 85.62062073 C-143.99917636 85.57723136 -142.42454041 85.53620549 -140.84985352 85.49731445 C-138.49933564 85.43903322 -136.14911435 85.37355003 -133.79882812 85.30664062 C-118.35025295 84.88325477 -102.94398926 84.95145306 -87.5 85.5 C-86.0794355 85.54842464 -84.65886257 85.59660253 -83.23828125 85.64453125 C-79.82541958 85.76019736 -76.41268179 85.87912883 -73 86 C-73 86.66 -73 87.32 -73 88 C-68.93602382 84.54129687 -65.00025259 81.04823885 -61.3125 77.1875 C-53.63155342 69.41601181 -40.68714338 56.98880875 -29.3125 56.375 C-23.21727013 56.84799844 -19.04491516 59.5554989 -15.125 64.125 C-12.46081876 67.7294805 -11.87487171 69.24101954 -11.9375 73.625 C-11.94652344 74.44226563 -11.95554688 75.25953125 -11.96484375 76.1015625 C-11.98224609 77.04128906 -11.98224609 77.04128906 -12 78 C-8.08407293 77.11001657 -6.32993724 76.40325663 -3.75 73.25 C0.32232098 65.68711818 1.06033011 58.48264091 0 50 C-1.48648339 46.23353674 -3.57517343 43.22427813 -6 40 C-7.23145521 38.23075738 -8.46063483 36.45992863 -9.6875 34.6875 C-10.24824219 33.90761719 -10.80898437 33.12773438 -11.38671875 32.32421875 C-16.24411914 25.32626904 -18.13002441 19.56507141 -17 11 C-15.25379569 6.52158809 -13.02932757 3.70081877 -9.0625 1 C-5.72783811 -0.08886919 -3.48018143 -0.44427848 0 0 Z " fill="#AFA281" transform="translate(168,22)"/>
<path d="M0 0 C12.26064227 0.07407093 24.52133 0.13877647 36.78202677 0.20307851 C61.82011954 0.33458279 86.85814203 0.4766302 111.89613032 0.62664449 C111.89613032 4.25664449 111.89613032 7.88664449 111.89613032 11.62664449 C45.89613032 11.62664449 -20.10386968 11.62664449 -88.10386968 11.62664449 C-87.60886968 17.56664449 -87.60886968 17.56664449 -87.10386968 23.62664449 C-21.43386968 23.95664449 44.23613032 24.28664449 111.89613032 24.62664449 C111.89613032 31.88664449 111.89613032 39.14664449 111.89613032 46.62664449 C46.55613032 46.62664449 -18.78386968 46.62664449 -86.10386968 46.62664449 C-86.10386968 50.25664449 -86.10386968 53.88664449 -86.10386968 57.62664449 C-20.43386968 57.29664449 45.23613032 56.96664449 112.89613032 56.62664449 C112.89613032 58.27664449 112.89613032 59.92664449 112.89613032 61.62664449 C47.22613032 61.62664449 -18.44386968 61.62664449 -86.10386968 61.62664449 C-86.10386968 64.92664449 -86.10386968 68.22664449 -86.10386968 71.62664449 C-88.74386968 71.62664449 -91.38386968 71.62664449 -94.10386968 71.62664449 C-94.10386968 67.99664449 -94.10386968 64.36664449 -94.10386968 60.62664449 C-130.73386968 60.62664449 -167.36386968 60.62664449 -205.10386968 60.62664449 C-205.10386968 59.63664449 -205.10386968 58.64664449 -205.10386968 57.62664449 C-168.47386968 57.62664449 -131.84386968 57.62664449 -94.10386968 57.62664449 C-94.10386968 53.99664449 -94.10386968 50.36664449 -94.10386968 46.62664449 C-131.06386968 46.95664449 -168.02386968 47.28664449 -206.10386968 47.62664449 C-206.10386968 40.03664449 -206.10386968 32.44664449 -206.10386968 24.62664449 C-172.77386968 24.62664449 -139.44386968 24.62664449 -105.10386968 24.62664449 C-105.59886968 23.63664449 -105.59886968 23.63664449 -106.10386968 22.62664449 C-106.10386968 18.99664449 -106.10386968 15.36664449 -106.10386968 11.62664449 C-138.77386968 11.62664449 -171.44386968 11.62664449 -205.10386968 11.62664449 C-205.10386968 7.99664449 -205.10386968 4.36664449 -205.10386968 0.62664449 C-136.72840698 -0.27389064 -68.37959693 -0.41493853 0 0 Z " fill="#1C1C1C" transform="translate(216.10386967658997,259.37335550785065)"/>
<path d="M0 0 C0.33 0 0.66 0 1 0 C1 86.79 1 173.58 1 263 C34 263 67 263 101 263 C101.33 267.29 101.66 271.58 102 276 C68.67 276 35.34 276 1 276 C1.33 283.26 1.66 290.52 2 298 C38.63 298 75.26 298 113 298 C113 301.63 113 305.26 113 309 C76.37 309 39.74 309 2 309 C2 309.99 2 310.98 2 312 C38.63 312 75.26 312 113 312 C113 315.63 113 319.26 113 323 C115.64 323 118.28 323 121 323 C121 319.7 121 316.4 121 313 C186.67 313 252.34 313 320 313 C320 316.63 320 320.26 320 324 C279.37830841 324.02278885 238.75661781 324.04049739 198.13492111 324.05106533 C193.34442331 324.05231611 188.55392552 324.05361042 183.76342773 324.05493164 C182.33281203 324.05532511 182.33281203 324.05532511 180.873295 324.05572652 C165.40927058 324.06008357 149.94524986 324.0679713 134.48122764 324.0771528 C118.62601906 324.08648837 102.77081242 324.09205541 86.91560119 324.09408849 C77.12388652 324.09546392 67.33218229 324.09981558 57.54047083 324.10791647 C50.83542537 324.11318274 44.13038536 324.11480457 37.42533798 324.11350138 C33.5508721 324.11285781 29.67642456 324.11387759 25.8019619 324.11920547 C21.61153846 324.12492611 17.42115457 324.12300126 13.23072815 324.12025452 C11.99242848 324.12316736 10.75412882 324.1260802 9.47830492 324.12908131 C8.36511069 324.12709026 7.25191645 324.12509921 6.10498905 324.12304783 C4.65198921 324.12361741 4.65198921 324.12361741 3.16963583 324.1241985 C1 324 1 324 0 323 C-0.09732189 321.27977635 -0.12371487 319.55551578 -0.12304783 317.83254147 C-0.12503888 316.70541365 -0.12702993 315.57828583 -0.12908131 314.41700262 C-0.12616847 313.16313916 -0.12325563 311.9092757 -0.12025452 310.61741638 C-0.12110894 309.29757454 -0.12196337 307.97773271 -0.12284368 306.61789566 C-0.12509114 302.93743584 -0.12106396 299.25700484 -0.11606562 295.5765487 C-0.11176488 291.61402072 -0.11320728 287.6514945 -0.1139679 283.68896484 C-0.11449337 276.81796824 -0.11134412 269.94698109 -0.10573006 263.07598686 C-0.09761823 253.14156629 -0.09500016 243.20715031 -0.09374207 233.27272678 C-0.09155105 217.15650601 -0.08488961 201.04029029 -0.07543945 184.92407227 C-0.06626663 169.26456732 -0.05918516 153.60506373 -0.05493164 137.94555664 C-0.05466892 136.98101979 -0.05440619 136.01648294 -0.05413551 135.02271771 C-0.05283051 130.18413333 -0.0515668 125.34554895 -0.05032361 120.50696456 C-0.03994943 80.33797284 -0.02232976 40.16898675 0 0 Z " fill="#636363" transform="translate(9,8)"/>
<path d="M0 0 C-0.57002851 3.57677227 -1.51677696 6.18249358 -3.3125 9.3125 C-13.76648496 31.43604956 -10 50.56130503 -10 76 C89.495 76.495 89.495 76.495 191 77 C190.67 77.66 190.34 78.32 190 79 C190.08780403 81.04498425 190.24241538 83.08744948 190.4375 85.125 C190.53933594 86.22070312 190.64117187 87.31640625 190.74609375 88.4453125 C190.87177734 89.70988281 190.87177734 89.70988281 191 91 C164.63574425 91.15391588 138.27146116 91.30194879 111.9071331 91.4429636 C99.66593581 91.50857547 87.42475483 91.57611793 75.18359375 91.64819336 C64.51515507 91.71100378 53.84670354 91.77020406 43.17822087 91.82505554 C37.5285122 91.85422968 31.87882659 91.88522085 26.22915268 91.92053413 C20.91216483 91.95371095 15.59517315 91.98206277 10.27813911 92.00670624 C8.32622989 92.01660493 6.3743287 92.02826992 4.42244148 92.04183006 C1.75769065 92.0600787 -0.90701622 92.07197405 -3.57180786 92.08229065 C-4.34419332 92.08909444 -5.11657877 92.09589823 -5.91236985 92.10290819 C-10.05173169 92.1114989 -13.9398212 91.81237925 -18 91 C-17.98839844 92.26457031 -17.97679688 93.52914062 -17.96484375 94.83203125 C-17.95546434 96.49218602 -17.9463643 98.15234239 -17.9375 99.8125 C-17.92912109 100.64587891 -17.92074219 101.47925781 -17.91210938 102.33789062 C-17.90888672 103.14033203 -17.90566406 103.94277344 -17.90234375 104.76953125 C-17.89710693 105.50792236 -17.89187012 106.24631348 -17.88647461 107.00708008 C-18 109 -18 109 -19 112 C-16.69 112 -14.38 112 -12 112 C-12.03480469 111.37351562 -12.06960937 110.74703125 -12.10546875 110.1015625 C-12.13253906 109.28429687 -12.15960938 108.46703125 -12.1875 107.625 C-12.23970703 106.40683594 -12.23970703 106.40683594 -12.29296875 105.1640625 C-12.19628906 104.44992188 -12.09960938 103.73578125 -12 103 C-11.01 102.34 -10.02 101.68 -9 101 C-9 104.63 -9 108.26 -9 112 C57 112 123 112 191 112 C191 112.66 191 113.32 191 114 C121.04 114.33 51.08 114.66 -21 115 C-21.33 115.66 -21.66 116.32 -22 117 C-22.33 116.34 -22.66 115.68 -23 115 C-56.99 114.67 -90.98 114.34 -126 114 C-126 113.34 -126 112.68 -126 112 C-91.68 112 -57.36 112 -22 112 C-22 111.34 -22 110.68 -22 110 C-56.32 110 -90.64 110 -126 110 C-126 107.03 -126 104.06 -126 101 C-91.02 101 -56.04 101 -20 101 C-20.33 97.7 -20.66 94.4 -21 91 C-55.65 91 -90.3 91 -126 91 C-126 90.34 -126 89.68 -126 89 C-91.35 89 -56.7 89 -21 89 C-21.33 85.7 -21.66 82.4 -22 79 C-56.65 79 -91.3 79 -127 79 C-127 78.34 -127 77.68 -127 77 C-92.68 77 -58.36 77 -23 77 C-25.00407027 62.4028537 -25.00407027 62.4028537 -28 48 C-28.7688956 40.26353946 -27.47667682 33.00531479 -25.6875 25.5 C-25.47416016 24.52546875 -25.26082031 23.5509375 -25.04101562 22.546875 C-23.16014455 14.4170203 -23.16014455 14.4170203 -20 12 C-17.8125 12.3125 -17.8125 12.3125 -16 13 C-16.26554687 13.50789062 -16.53109375 14.01578125 -16.8046875 14.5390625 C-24.8030395 30.12709157 -24.31439655 47.06597932 -21.06738281 63.93505859 C-20.28129726 68.02513079 -19.8425436 71.83396597 -20 76 C-17.69 76 -15.38 76 -13 76 C-13.1103643 71.95779519 -13.24088006 67.91648085 -13.375 63.875 C-13.4059375 62.73289063 -13.436875 61.59078125 -13.46875 60.4140625 C-13.50742188 59.30546875 -13.54609375 58.196875 -13.5859375 57.0546875 C-13.6173584 56.03874512 -13.6487793 55.02280273 -13.68115234 53.97607422 C-14.02616234 50.75580476 -14.9195347 48.04357936 -16 45 C-16.36070324 37.95426336 -14.45964429 30.70290105 -13.125 23.8125 C-12.96370605 22.96929199 -12.80241211 22.12608398 -12.63623047 21.25732422 C-8.33469931 0 -8.33469931 0 0 0 Z " fill="#111010" transform="translate(137,138)"/>
<path d="M0 0 C3.44795168 1.78096678 5.74721097 3.47482995 6.953125 7.2265625 C6.293125 7.2265625 5.633125 7.2265625 4.953125 7.2265625 C5.118125 8.0721875 5.283125 8.9178125 5.453125 9.7890625 C6.55222376 17.34536647 5.34101985 23.06287795 2.953125 30.2265625 C1.4990625 30.690625 1.4990625 30.690625 0.015625 31.1640625 C-3.13190373 31.89726246 -3.13190373 31.89726246 -4.296875 34.2265625 C-4.544375 34.8865625 -4.791875 35.5465625 -5.046875 36.2265625 C-6.036875 37.2165625 -6.036875 37.2165625 -7.046875 38.2265625 C-6.056875 39.2165625 -5.066875 40.2065625 -4.046875 41.2265625 C-4.645 41.9484375 -5.243125 42.6703125 -5.859375 43.4140625 C-8.0821561 46.13970453 -8.0821561 46.13970453 -9.671875 49.0390625 C-10.125625 49.7609375 -10.579375 50.4828125 -11.046875 51.2265625 C-11.706875 51.2265625 -12.366875 51.2265625 -13.046875 51.2265625 C-13.376875 52.2165625 -13.706875 53.2065625 -14.046875 54.2265625 C-14.706875 54.2265625 -15.366875 54.2265625 -16.046875 54.2265625 C-16.376875 55.8765625 -16.706875 57.5265625 -17.046875 59.2265625 C-17.706875 59.2265625 -18.366875 59.2265625 -19.046875 59.2265625 C-19.376875 60.2165625 -19.706875 61.2065625 -20.046875 62.2265625 C-22.33855146 65.2057419 -24.38223445 65.7313408 -28.046875 66.2265625 C-28.046875 66.8865625 -28.046875 67.5465625 -28.046875 68.2265625 C-33.986875 68.5565625 -39.926875 68.8865625 -46.046875 69.2265625 C-46.541875 70.7115625 -46.541875 70.7115625 -47.046875 72.2265625 C-48.79345703 73.45336914 -48.79345703 73.45336914 -51.0546875 74.63671875 C-51.87710938 75.06919922 -52.69953125 75.50167969 -53.546875 75.94726562 C-54.84625 76.61145508 -54.84625 76.61145508 -56.171875 77.2890625 C-57.01492187 77.73572266 -57.85796875 78.18238281 -58.7265625 78.64257812 C-63.43924128 81.09039032 -67.88048165 82.98746816 -73.046875 84.2265625 C-72.386875 84.5565625 -71.726875 84.8865625 -71.046875 85.2265625 C-71.046875 85.8865625 -71.046875 86.5465625 -71.046875 87.2265625 C-70.056875 87.2265625 -69.066875 87.2265625 -68.046875 87.2265625 C-68.80232124 96.14082814 -68.80232124 96.14082814 -72.046875 100.2265625 C-73.796875 101.6640625 -73.796875 101.6640625 -76.046875 102.2265625 C-79.796875 101.3515625 -79.796875 101.3515625 -83.046875 100.2265625 C-83.046875 99.5665625 -83.046875 98.9065625 -83.046875 98.2265625 C-84.036875 98.2265625 -85.026875 98.2265625 -86.046875 98.2265625 C-85.33889617 91.17567125 -83.69953042 87.292221 -78.7890625 82.21875 C-74.92900624 77.80478433 -73.32254615 72.16108702 -71.546875 66.6640625 C-68.48291041 57.32779342 -63.18717948 49.87290729 -57.38476562 42.03466797 C-56.51945279 40.86523241 -55.65846678 39.69257742 -54.80273438 38.51611328 C-45.25340012 25.39927734 -34.27431529 14.62237651 -21.046875 5.2265625 C-19.69722656 4.25976562 -19.69722656 4.25976562 -18.3203125 3.2734375 C-12.28806788 -0.72315801 -7.02560346 -2.65471276 0 0 Z " fill="#F0F0F0" transform="translate(145.046875,79.7734375)"/>
<path d="M0 0 C12.26064227 0.07407093 24.52133 0.13877647 36.78202677 0.20307851 C61.82011954 0.33458279 86.85814203 0.4766302 111.89613032 0.62664449 C111.89613032 4.25664449 111.89613032 7.88664449 111.89613032 11.62664449 C45.89613032 11.62664449 -20.10386968 11.62664449 -88.10386968 11.62664449 C-88.10386968 13.60664449 -88.10386968 15.58664449 -88.10386968 17.62664449 C-88.43386968 17.62664449 -88.76386968 17.62664449 -89.10386968 17.62664449 C-89.43386968 27.52664449 -89.76386968 37.42664449 -90.10386968 47.62664449 C-90.43386968 47.62664449 -90.76386968 47.62664449 -91.10386968 47.62664449 C-91.43386968 32.77664449 -91.76386968 17.92664449 -92.10386968 2.62664449 C-95.07386968 2.62664449 -98.04386968 2.62664449 -101.10386968 2.62664449 C-101.08324468 3.55476949 -101.06261968 4.48289449 -101.04136968 5.43914449 C-101.03263156 9.71208121 -101.4579196 13.92525203 -101.88511968 18.17351949 C-102.14827945 20.71419188 -102.14827945 20.71419188 -102.10386968 23.62664449 C-103.42386968 23.29664449 -104.74386968 22.96664449 -106.10386968 22.62664449 C-106.10386968 18.99664449 -106.10386968 15.36664449 -106.10386968 11.62664449 C-138.77386968 11.62664449 -171.44386968 11.62664449 -205.10386968 11.62664449 C-205.10386968 7.99664449 -205.10386968 4.36664449 -205.10386968 0.62664449 C-136.72840698 -0.27389064 -68.37959693 -0.41493853 0 0 Z " fill="#1B1C1D" transform="translate(216.10386967658997,259.37335550785065)"/>
<path d="M0 0 C2.97 0 5.94 0 9 0 C9.12117188 0.83144531 9.24234375 1.66289062 9.3671875 2.51953125 C9.53476563 3.60621094 9.70234375 4.69289063 9.875 5.8125 C10.03742188 6.89144531 10.19984375 7.97039062 10.3671875 9.08203125 C10.85132338 12.17321793 10.85132338 12.17321793 13 15 C13.495 17.97 13.495 17.97 14 21 C18.29 21.33 22.58 21.66 27 22 C27 22.33 27 22.66 27 23 C22.71 23 18.42 23 14 23 C14 34.88 14 46.76 14 59 C14.33 59 14.66 59 15 59 C15 62.3 15 65.6 15 69 C12.36 69 9.72 69 7 69 C7 65.37 7 61.74 7 58 C-29.63 58 -66.26 58 -104 58 C-104 57.01 -104 56.02 -104 55 C-67.37 55 -30.74 55 7 55 C7 51.37 7 47.74 7 44 C-29.96 44.33 -66.92 44.66 -105 45 C-105 37.41 -105 29.82 -105 22 C-53.52 21.505 -53.52 21.505 -1 21 C-1.495 16.545 -1.495 16.545 -2 12 C-1.66015625 8.49609375 -1.66015625 8.49609375 -1.0625 5.4375 C-0.86785156 4.40496094 -0.67320313 3.37242187 -0.47265625 2.30859375 C-0.23869141 1.16583984 -0.23869141 1.16583984 0 0 Z " fill="#1B1B1B" transform="translate(115,262)"/>
<path d="M0 0 C34.65 0 69.3 0 105 0 C105.495 4.95 105.495 4.95 106 10 C71.35 10 36.7 10 1 10 C1 10.66 1 11.32 1 12 C35.65 12 70.3 12 106 12 C107 15 107 15 107 22 C72.02 22 37.04 22 1 22 C1 24.97 1 27.94 1 31 C35.32 31 69.64 31 105 31 C105 31.66 105 32.32 105 33 C70.68 33 36.36 33 1 33 C1 33.66 1 34.32 1 35 C34.99 35 68.98 35 104 35 C104 35.33 104 35.66 104 36 C70.01 36 36.02 36 1 36 C1 37.98 1 39.96 1 42 C34.66 42 68.32 42 103 42 C103 42.33 103 42.66 103 43 C69.34 43 35.68 43 1 43 C1 46.63 1 50.26 1 54 C0.67 54 0.34 54 0 54 C0 36.18 0 18.36 0 0 Z " fill="#565658" transform="translate(10,217)"/>
<path d="M0 0 C104.61 0 209.22 0 317 0 C317 1.98 317 3.96 317 6 C315.28261409 7.71738591 313.09741307 7.12491254 310.80707639 7.13374341 C310.05604865 7.13151268 309.3050209 7.12928196 308.53123474 7.12698364 C307.34145172 7.12932363 307.34145172 7.12932363 306.12763268 7.13171089 C303.44371263 7.13572815 300.7598483 7.13252715 298.07592773 7.12939453 C296.15587836 7.13074936 294.23582926 7.13252976 292.31578064 7.13470459 C287.04868787 7.13930064 281.78161451 7.13747236 276.51452136 7.1343255 C270.90169396 7.13177599 265.28886812 7.13414999 259.67604065 7.13571167 C250.13778392 7.13754124 240.59953486 7.13512257 231.0612793 7.13037109 C221.4964954 7.12565856 211.93172714 7.12542819 202.36694336 7.13037109 C134.90557189 7.16442309 67.45685862 6.78460778 0 6 C0 4.02 0 2.04 0 0 Z " fill="#EEEEED" transform="translate(11,253)"/>
<path d="M0 0 C66 0 132 0 200 0 C200 3.3 200 6.6 200 10 C134 10 68 10 0 10 C0 6.7 0 3.4 0 0 Z " fill="#414145" transform="translate(127,217)"/>
<path d="M0 0 C65.34 0 130.68 0 198 0 C198 2.97 198 5.94 198 9 C132.66 9 67.32 9 0 9 C0 6.03 0 3.06 0 0 Z " fill="#E8E8E8" transform="translate(130,321)"/>
<path d="M0 0 C64.68 0 129.36 0 196 0 C196 2.97 196 5.94 196 9 C131.32 9 66.64 9 0 9 C0 6.03 0 3.06 0 0 Z " fill="#F6F6F5" transform="translate(131,307)"/>
<path d="M0 0 C65.67 0 131.34 0 199 0 C199 2.64 199 5.28 199 8 C133.33 8 67.66 8 0 8 C0 5.36 0 2.72 0 0 Z " fill="#E0E0E0" transform="translate(128,230)"/>
<path d="M0 0 C2.875 1.5 2.875 1.5 5 3 C4.6875 4.9375 4.6875 4.9375 4 7 C3.01 7.33 2.02 7.66 1 8 C1 7.34 1 6.68 1 6 C-1.05990478 7.29467677 -1.05990478 7.29467677 -3 9 C-3 9.99 -3 10.98 -3 12 C-3.99 12.33 -4.98 12.66 -6 13 C-5.95187012 24.52710703 -0.13697542 30.88126382 7.0703125 39.34765625 C12.04453089 46.18468922 13.70439374 51.72862804 13.5625 60.1875 C13.54606445 61.57787476 13.54606445 61.57787476 13.52929688 62.99633789 C13.28399497 70.81261048 11.65739571 77.05094814 8 84 C7.43023437 85.15886719 6.86046875 86.31773438 6.2734375 87.51171875 C-0.50633425 100.72655837 -10.54473373 109.14814456 -23 117 C-28.67068734 120.73728823 -32.03710948 123.82731141 -35 130 C-35.65234375 128.2578125 -35.65234375 128.2578125 -36 126 C-35.06640625 123.9921875 -35.06640625 123.9921875 -33.5625 121.875 C-32.73105469 120.69550781 -32.73105469 120.69550781 -31.8828125 119.4921875 C-29.95771296 116.94402669 -27.96139507 114.47022934 -25.9375 112 C-22.33829875 107.57655419 -19.5908094 103.06295576 -17 98 C-16.443125 97.0925 -15.88625 96.185 -15.3125 95.25 C-13.92696565 91.81915303 -13.60060818 88.97782254 -13.1875 85.3125 C-12.72265625 81.859375 -12.72265625 81.859375 -12 79 C-9.125 77.0625 -9.125 77.0625 -6 76 C-0.45589815 69.06987269 0.57802685 62.20210409 0.44140625 53.53125 C-0.25350812 47.97193505 -2.69007736 44.40118535 -6 40 C-7.23145521 38.23075738 -8.46063483 36.45992863 -9.6875 34.6875 C-10.24824219 33.90761719 -10.80898437 33.12773438 -11.38671875 32.32421875 C-16.24411914 25.32626904 -18.13002441 19.56507141 -17 11 C-15.25379569 6.52158809 -13.02932757 3.70081877 -9.0625 1 C-5.72783811 -0.08886919 -3.48018143 -0.44427848 0 0 Z " fill="#EEEDED" transform="translate(168,22)"/>
<path d="M0 0 C65.01 0 130.02 0 197 0 C197 2.64 197 5.28 197 8 C131.99 8 66.98 8 0 8 C0 5.36 0 2.72 0 0 Z " fill="#FAF8F3" transform="translate(130,275)"/>
<path d="M0 0 C2.375 0.25 2.375 0.25 5 1 C6.94746449 3.94751382 7.22748966 6.26535169 7.125 9.75 C7.10695313 10.54921875 7.08890625 11.3484375 7.0703125 12.171875 C7.04710937 12.77515625 7.02390625 13.3784375 7 14 C7.99 14.33 8.98 14.66 10 15 C9.01 15 8.02 15 7 15 C6.99742187 15.79921875 6.99484375 16.5984375 6.9921875 17.421875 C6.48056456 31.95196655 -0.79126127 42.31720058 -10 53 C-10.99 53.495 -10.99 53.495 -12 54 C-12 53.34 -12 52.68 -12 52 C-18.45462707 56.02630864 -21.03413239 60.29382415 -22.76147461 67.66625977 C-23.20881568 69.77222361 -23.6102995 71.8826273 -24 74 C-24.23009766 75.20366211 -24.23009766 75.20366211 -24.46484375 76.43164062 C-24.93709866 78.95098397 -25.38209497 81.47318535 -25.8125 84 C-25.94889893 84.78858398 -26.08529785 85.57716797 -26.22583008 86.38964844 C-27.13780093 92.27276677 -26.905219 97.28434299 -25 103 C-24.91733514 104.91906917 -24.89259337 106.84089474 -24.90234375 108.76171875 C-24.90717773 110.43911133 -24.90717773 110.43911133 -24.91210938 112.15039062 C-24.92467773 113.90125977 -24.92467773 113.90125977 -24.9375 115.6875 C-24.94201172 116.86634766 -24.94652344 118.04519531 -24.95117188 119.25976562 C-24.96296727 122.17322789 -24.9794273 125.08658863 -25 128 C-27.31 128 -29.62 128 -32 128 C-39.88675725 86.47391579 -39.88675725 86.47391579 -30 67 C-29.67 66.34 -29.34 65.68 -29 65 C-34.19740853 65.56405984 -38.11423811 67.2616254 -42.6875 69.625 C-43.39011963 69.98400391 -44.09273926 70.34300781 -44.81665039 70.71289062 C-55.93028946 76.47354276 -67.61099878 82.85596626 -74 94 C-76.49976614 96.5890435 -77.74715125 96.97190569 -81.375 97.375 C-85.23516636 96.97567245 -87.67388155 95.94699617 -91 94 C-91.36923077 87.47692308 -91.36923077 87.47692308 -89.5 85.0625 C-89.005 84.711875 -88.51 84.36125 -88 84 C-88.52268466 86.76276177 -89.10869587 89.3260876 -90 92 C-89.01 92 -88.02 92 -87 92 C-87 92.66 -87 93.32 -87 94 C-85.515 93.505 -85.515 93.505 -84 93 C-84 93.66 -84 94.32 -84 95 C-80.99368921 95.33403453 -79.44575241 95.28842803 -76.875 93.625 C-74.12215636 89.77101891 -73.14723111 85.55415986 -72 81 C-72.99 81 -73.98 81 -75 81 C-75 80.34 -75 79.68 -75 79 C-75.99 78.67 -76.98 78.34 -78 78 C-78 77.67 -78 77.34 -78 77 C-77.46125244 76.83781982 -76.92250488 76.67563965 -76.36743164 76.50854492 C-70.41342073 74.63146565 -64.97820041 72.17177503 -59.4375 69.3125 C-58.21063477 68.68891602 -58.21063477 68.68891602 -56.95898438 68.05273438 C-54.96975449 67.04067005 -52.9835846 66.02307153 -51 65 C-51 64.01 -51 63.02 -51 62 C-44.73 62 -38.46 62 -32 62 C-32 61.34 -32 60.68 -32 60 C-30.35 59.34 -28.7 58.68 -27 58 C-27.33 57.34 -27.66 56.68 -28 56 C-27.360625 55.87625 -26.72125 55.7525 -26.0625 55.625 C-25.381875 55.41875 -24.70125 55.2125 -24 55 C-23.505 54.01 -23.505 54.01 -23 53 C-22.34 53 -21.68 53 -21 53 C-20.896875 52.236875 -20.79375 51.47375 -20.6875 50.6875 C-19.95288806 47.81583516 -19.3283935 46.76957906 -17 45 C-16.34 45 -15.68 45 -15 45 C-14.731875 43.865625 -14.46375 42.73125 -14.1875 41.5625 C-13.5996875 39.7990625 -13.5996875 39.7990625 -13 38 C-12.01 37.67 -11.02 37.34 -10 37 C-10 36.01 -10 35.02 -10 34 C-10.66 33.34 -11.32 32.68 -12 32 C-12 31.34 -12 30.68 -12 30 C-11.01 30 -10.02 30 -9 30 C-8.67 28.35 -8.34 26.7 -8 25 C-5.69 24.67 -3.38 24.34 -1 24 C-0.93941406 23.36191406 -0.87882812 22.72382812 -0.81640625 22.06640625 C-0.69072266 20.82697266 -0.69072266 20.82697266 -0.5625 19.5625 C-0.44068359 18.32693359 -0.44068359 18.32693359 -0.31640625 17.06640625 C0 15 0 15 1 14 C1.09919077 12.39836084 1.12969898 10.79220082 1.125 9.1875 C1.12757813 8.31480469 1.13015625 7.44210938 1.1328125 6.54296875 C1.01114834 4.21345785 0.65514709 2.23061985 0 0 Z " fill="#BEBEBD" transform="translate(149,86)"/>
<path d="M0 0 C65.67 0 131.34 0 199 0 C199.94738023 2.84214068 200.13460559 4.67608391 200.125 7.625 C200.12757813 8.42164063 200.13015625 9.21828125 200.1328125 10.0390625 C200 12 200 12 199 13 C196.44772391 13.09997882 193.92244407 13.13440999 191.36962891 13.12698364 C190.56093668 13.12854363 189.75224445 13.13010362 188.9190464 13.13171089 C186.18820032 13.13572425 183.45740907 13.13252995 180.7265625 13.12939453 C178.77732307 13.13074842 176.8280839 13.13252829 174.87884521 13.13470459 C169.56908293 13.13928036 164.25933998 13.13748878 158.94957733 13.1343255 C153.40600022 13.13180264 147.86242483 13.13413923 142.31884766 13.13571167 C133.00748394 13.13753358 123.69612814 13.13512649 114.38476562 13.13037109 C103.60284351 13.12492843 92.82094029 13.12669107 82.03901863 13.1321975 C72.79999186 13.13672801 63.5609708 13.13737948 54.32194328 13.13475883 C48.79594487 13.13319572 43.26995537 13.13300323 37.74395752 13.13629532 C32.55006266 13.13917314 27.3561923 13.13719998 22.16230011 13.13140106 C20.25022675 13.13007298 18.33815135 13.13046838 16.4260788 13.13266373 C13.82748124 13.13537337 11.22896349 13.1319964 8.63037109 13.12698364 C7.48015189 13.13032973 7.48015189 13.13032973 6.30669594 13.13374341 C1.11414985 13.11414985 1.11414985 13.11414985 0 12 C0 8.04 0 4.08 0 0 Z M2 4 C2 6.64 2 9.28 2 12 C67.01 12 132.02 12 199 12 C199 9.36 199 6.72 199 4 C133.99 4 68.98 4 2 4 Z " fill="#777673" transform="translate(128,271)"/>
<path d="M0 0 C36.63 0 73.26 0 111 0 C111 2.97 111 5.94 111 9 C74.37 9 37.74 9 0 9 C0 6.03 0 3.06 0 0 Z " fill="#E7E8E8" transform="translate(11,321)"/>
<path d="M0 0 C36.3 0 72.6 0 110 0 C110 2.97 110 5.94 110 9 C73.7 9 37.4 9 0 9 C0 6.03 0 3.06 0 0 Z " fill="#F5F5F5" transform="translate(12,307)"/>
<path d="M0 0 C34.65 0 69.3 0 105 0 C104.67 2.97 104.34 5.94 104 9 C69.68 9 35.36 9 0 9 C0 6.03 0 3.06 0 0 Z " fill="#1E1E20" transform="translate(11,239)"/>
<path d="M0 0 C32.34 0 64.68 0 98 0 C98.495 4.455 98.495 4.455 99 9 C66.33 9 33.66 9 0 9 C0 6.03 0 3.06 0 0 Z " fill="#F2F0EB" transform="translate(11,274)"/>
<path d="M0 0 C34.65 0 69.3 0 105 0 C105 2.64 105 5.28 105 8 C70.35 8 35.7 8 0 8 C0 5.36 0 2.72 0 0 Z " fill="#DEDEDD" transform="translate(11,230)"/>
<path d="M0 0 C12.26064227 0.07407093 24.52133 0.13877647 36.78202677 0.20307851 C61.82011954 0.33458279 86.85814203 0.4766302 111.89613032 0.62664449 C111.89613032 4.25664449 111.89613032 7.88664449 111.89613032 11.62664449 C111.56613032 11.62664449 111.23613032 11.62664449 110.89613032 11.62664449 C110.89613032 8.65664449 110.89613032 5.68664449 110.89613032 2.62664449 C45.55613032 2.62664449 -19.78386968 2.62664449 -87.10386968 2.62664449 C-87.10386968 5.59664449 -87.10386968 8.56664449 -87.10386968 11.62664449 C-87.38568128 13.63455219 -87.69643784 15.64041429 -88.10386968 17.62664449 C-88.43386968 17.62664449 -88.76386968 17.62664449 -89.10386968 17.62664449 C-89.43386968 27.52664449 -89.76386968 37.42664449 -90.10386968 47.62664449 C-90.43386968 47.62664449 -90.76386968 47.62664449 -91.10386968 47.62664449 C-91.43386968 32.77664449 -91.76386968 17.92664449 -92.10386968 2.62664449 C-95.07386968 2.62664449 -98.04386968 2.62664449 -101.10386968 2.62664449 C-101.08324468 3.55476949 -101.06261968 4.48289449 -101.04136968 5.43914449 C-101.03263156 9.71208121 -101.4579196 13.92525203 -101.88511968 18.17351949 C-102.14827945 20.71419188 -102.14827945 20.71419188 -102.10386968 23.62664449 C-103.42386968 23.29664449 -104.74386968 22.96664449 -106.10386968 22.62664449 C-106.34065928 15.40456151 -105.44696091 10.01364629 -104.10386968 2.62664449 C-137.10386968 2.62664449 -170.10386968 2.62664449 -204.10386968 2.62664449 C-204.10386968 5.59664449 -204.10386968 8.56664449 -204.10386968 11.62664449 C-204.43386968 11.62664449 -204.76386968 11.62664449 -205.10386968 11.62664449 C-205.10386968 7.99664449 -205.10386968 4.36664449 -205.10386968 0.62664449 C-136.72840698 -0.27389064 -68.37959693 -0.41493853 0 0 Z " fill="#121212" transform="translate(216.10386967658997,259.37335550785065)"/>
<path d="M0 0 C0.33 0 0.66 0 1 0 C1 86.79 1 173.58 1 263 C34 263 67 263 101 263 C101.33 267.29 101.66 271.58 102 276 C68.67 276 35.34 276 1 276 C1 291.51 1 307.02 1 323 C0.67 323 0.34 323 0 323 C0 216.41 0 109.82 0 0 Z M2 266 C2 268.97 2 271.94 2 275 C34.67 275 67.34 275 101 275 C100.505 270.545 100.505 270.545 100 266 C67.66 266 35.32 266 2 266 Z " fill="#81807F" transform="translate(9,8)"/>
<path d="M0 0 C0.33 0 0.66 0 1 0 C1.02705729 1.77074917 1.04642195 3.54161711 1.0625 5.3125 C1.07410156 6.29863281 1.08570312 7.28476563 1.09765625 8.30078125 C1 11 1 11 0 14 C2.31 14 4.62 14 7 14 C6.94779297 13.06027344 6.94779297 13.06027344 6.89453125 12.1015625 C6.86746094 11.28429687 6.84039062 10.46703125 6.8125 9.625 C6.76029297 8.40683594 6.76029297 8.40683594 6.70703125 7.1640625 C6.80371094 6.44992188 6.90039062 5.73578125 7 5 C7.99 4.34 8.98 3.68 10 3 C10 6.63 10 10.26 10 14 C76 14 142 14 210 14 C210 14.66 210 15.32 210 16 C140.04 16.33 70.08 16.66 -2 17 C-2.33 17.66 -2.66 18.32 -3 19 C-3.495 18.01 -3.495 18.01 -4 17 C-37.99 16.67 -71.98 16.34 -107 16 C-107 15.34 -107 14.68 -107 14 C-72.68 14 -38.36 14 -3 14 C-3 11.03 -3 8.06 -3 5 C-1.5625 1.9375 -1.5625 1.9375 0 0 Z " fill="#080809" transform="translate(118,236)"/>
<path d="M0 0 C33.99 0 67.98 0 103 0 C102.67 1.98 102.34 3.96 102 6 C68.34 6 34.68 6 0 6 C0 4.02 0 2.04 0 0 Z " fill="#F2F1F1" transform="translate(11,253)"/>
<path d="M0 0 C27.08528907 -0.0231206 54.17057578 -0.04098006 81.25587273 -0.05181217 C93.83122976 -0.05697475 106.40658056 -0.06401672 118.98193359 -0.07543945 C129.93894521 -0.08538746 140.89595232 -0.09185371 151.85296834 -0.09408849 C157.65791388 -0.0953954 163.46284651 -0.09848001 169.26778793 -0.10573006 C174.72595825 -0.1124921 180.18411028 -0.11461658 185.64228439 -0.11310768 C187.65069172 -0.11338393 189.65909964 -0.11538796 191.66750336 -0.11920547 C194.39936062 -0.12414557 197.13114787 -0.12299709 199.86300659 -0.12025452 C201.06824394 -0.12462378 201.06824394 -0.12462378 202.29782951 -0.12908131 C207.77175758 -0.11412121 207.77175758 -0.11412121 210 1 C210 3.97 210 6.94 210 10 C208.95986787 10.00423194 207.91973574 10.00846388 206.84808445 10.01282406 C181.5784376 10.11586446 156.30882015 10.22459286 131.03922367 10.33933926 C118.81920913 10.39469629 106.59919167 10.44818229 94.37915039 10.49731445 C83.73233033 10.54012598 73.08553199 10.58639619 62.43874544 10.63687855 C56.79760601 10.66350399 51.15647095 10.68835758 45.51530647 10.70907402 C40.21224464 10.72860335 34.90922423 10.75273579 29.60619926 10.78049088 C27.65382003 10.78988101 25.70143169 10.79754917 23.7490387 10.80341911 C21.09563175 10.8116471 18.44232627 10.82591414 15.78895569 10.84178162 C15.00589697 10.84275972 14.22283826 10.84373783 13.41605049 10.84474558 C9.91537276 10.55306995 9.91537276 10.55306995 7 12 C6.76807135 13.51469448 6.58784762 15.03754562 6.4375 16.5625 C6.31181641 17.80193359 6.31181641 17.80193359 6.18359375 19.06640625 C6.12300781 19.70449219 6.06242187 20.34257812 6 21 C3.69 21 1.38 21 -1 21 C-0.67 14.07 -0.34 7.14 0 0 Z M9 1 C9 3.64 9 6.28 9 9 C74.67 9 140.34 9 208 9 C208 6.36 208 3.72 208 1 C142.33 1 76.66 1 9 1 Z " fill="#7E7E7F" transform="translate(119,229)"/>
<path d="M0 0 C0.83323325 -0.00085442 1.66646651 -0.00170885 2.52494925 -0.00258917 C5.31480641 -0.00423527 8.10460334 0.00126319 10.89445496 0.00672913 C12.89516702 0.00701121 14.89587918 0.00685285 16.89659119 0.00628662 C22.32794912 0.00599948 27.75928502 0.01188282 33.19063783 0.01886058 C38.86678598 0.02510791 44.54293463 0.02569901 50.21908569 0.02688599 C60.96767013 0.02999522 71.71624441 0.03820314 82.46482438 0.04823548 C94.70170736 0.05940924 106.93859082 0.06491025 119.17547762 0.06993091 C144.34767818 0.08038607 169.51986971 0.09797765 194.69206238 0.12025452 C194.69206238 0.78025452 194.69206238 1.44025452 194.69206238 2.12025452 C168.3105357 2.27413493 141.92898185 2.42216883 115.54738331 2.56321812 C103.29831037 2.62884455 91.04925363 2.69639339 78.80021667 2.76844788 C68.12556154 2.83123627 57.45089362 2.8904381 46.77619475 2.94531006 C41.1226057 2.97449749 35.46903952 3.00549651 29.815485 3.04078865 C24.49603787 3.07393852 19.17658686 3.10229892 13.85709381 3.12696075 C11.90315204 3.13686836 9.9492183 3.14853691 7.99529839 3.16208458 C5.33019788 3.1803016 2.66514105 3.19221663 0 3.20254517 C-1.16294745 3.21275085 -1.16294745 3.21275085 -2.34938878 3.22316271 C-6.13248544 3.23103583 -9.63082303 3.0389175 -13.30793762 2.12025452 C-13.30793762 1.79025452 -13.30793762 1.46025452 -13.30793762 1.12025452 C-8.87230947 0.01740357 -4.5404242 -0.01705864 0 0 Z " fill="#0E0E0E" transform="translate(133.3079376220703,226.87974548339844)"/>
<path d="M0 0 C0 1.98 0 3.96 0 6 C0.6496875 6.20625 1.299375 6.4125 1.96875 6.625 C6.21665146 8.55188314 9.75487806 11.24041573 13.5 14 C14.29664063 14.58160889 15.09328125 15.16321777 15.9140625 15.76245117 C26.14143438 23.25724851 36.13799372 31.03025226 46 39 C42.70305148 39 41.88812874 38.53373632 39.17578125 36.83203125 C38.40613037 36.35709229 37.63647949 35.88215332 36.84350586 35.39282227 C36.00827393 34.87131592 35.17304199 34.34980957 34.3125 33.8125 C26.46738472 29.01032974 18.52504955 24.44433853 10.4375 20.0625 C9.46401611 19.53180908 8.49053223 19.00111816 7.48754883 18.4543457 C1.10977847 15.01857383 -5.36808377 11.91403604 -12 9 C-11.01 8.01 -10.02 7.02 -9 6 C-9.33 5.34 -9.66 4.68 -10 4 C-8.35 3.34 -6.7 2.68 -5 2 C-5 2.66 -5 3.32 -5 4 C-4.360625 3.34 -3.72125 2.68 -3.0625 2 C-1 0 -1 0 0 0 Z " fill="#ACA84A" transform="translate(174,26)"/>
<path d="M0 0 C4.62 0 9.24 0 14 0 C14 1.98 14 3.96 14 6 C79.67 6 145.34 6 213 6 C213 6.33 213 6.66 213 7 C185.39317598 7.02333058 157.78635344 7.04097996 130.17952156 7.05181217 C117.36202795 7.05697479 104.54454046 7.06401684 91.72705078 7.07543945 C80.55908831 7.08538733 69.39113026 7.09185368 58.22316349 7.09408849 C52.30643534 7.09539542 46.38971986 7.09848017 40.47299576 7.10573006 C34.90976622 7.1124919 29.34655464 7.11461662 23.78332138 7.11310768 C21.73621269 7.11338393 19.68910344 7.11538809 17.64199829 7.11920547 C14.85759273 7.12414526 12.07325587 7.1229972 9.28884888 7.12025452 C8.46979352 7.12316736 7.65073817 7.1260802 6.80686295 7.12908131 C1.22824242 7.11412121 1.22824242 7.11412121 -1 6 C-0.67 4.02 -0.34 2.04 0 0 Z " fill="#949392" transform="translate(114,253)"/>
<path d="M0 0 C0.66 0.33 1.32 0.66 2 1 C2.19431765 3.04033535 2.38857488 5.08067656 2.58203125 7.12109375 C2.8328496 9.22621522 2.8328496 9.22621522 5.0625 10.5 C5.701875 10.665 6.34125 10.83 7 11 C6.01 11 5.02 11 4 11 C3.99742187 11.79921875 3.99484375 12.5984375 3.9921875 13.421875 C3.48056456 27.95196655 -3.79126127 38.31720058 -13 49 C-13.99 49.495 -13.99 49.495 -15 50 C-15.495 48.515 -15.495 48.515 -16 47 C-14.71999914 44.87971621 -13.41730464 42.97259256 -11.9375 41 C-4.49628937 31.71606804 -4.49628937 31.71606804 -1 21 C-1.85271484 22.55847656 -1.85271484 22.55847656 -2.72265625 24.1484375 C-16.01794992 48.25773854 -16.01794992 48.25773854 -26 56 C-28.7734375 56.74609375 -28.7734375 56.74609375 -31 57 C-26 52 -26 52 -23.875 50 C-21.94713894 48.09293363 -21.94713894 48.09293363 -20.75 45.85546875 C-18.91413831 42.85989979 -16.86977476 40.15406492 -14.72216797 37.37890625 C-5.62084348 25.60366772 0.63778174 15.30676167 0 0 Z " fill="#7E7F7D" transform="translate(152,90)"/>
<path d="M0 0 C-0.51272461 0.26103516 -1.02544922 0.52207031 -1.55371094 0.79101562 C-22.13075216 10.52502897 -22.13075216 10.52502897 -38.0625 26.125 C-39.93737297 28.90706956 -41.03778684 30.47657609 -44 32 C-49.24957258 32.58328584 -52.47075673 31.65126436 -57 29 C-57.36923077 22.47692308 -57.36923077 22.47692308 -55.5 20.0625 C-55.005 19.711875 -54.51 19.36125 -54 19 C-54.52268466 21.76276177 -55.10869587 24.3260876 -56 27 C-55.01 27 -54.02 27 -53 27 C-53 27.66 -53 28.32 -53 29 C-52.01 28.67 -51.02 28.34 -50 28 C-50 28.66 -50 29.32 -50 30 C-46.99368921 30.33403453 -45.44575241 30.28842803 -42.875 28.625 C-40.12215636 24.77101891 -39.14723111 20.55415986 -38 16 C-38.99 16 -39.98 16 -41 16 C-41 15.34 -41 14.68 -41 14 C-41.99 13.67 -42.98 13.34 -44 13 C-44 12.67 -44 12.34 -44 12 C-37.375 11 -37.375 11 -34 11 C-31.65789079 10.36485174 -29.32315031 9.7013284 -27 9 C-27 8.34 -27 7.68 -27 7 C-25.82244141 6.61908203 -25.82244141 6.61908203 -24.62109375 6.23046875 C-17.75225097 4.00918592 -17.75225097 4.00918592 -11.0625 1.3125 C-6.90481884 -0.46936335 -4.34297914 -1.44765971 0 0 Z " fill="#C9C7C4" transform="translate(115,151)"/>
<path d="M0 0 C0.33 0 0.66 0 1 0 C1.33 2.31 1.66 4.62 2 7 C2.66 7 3.32 7 4 7 C4.66 6.34 5.32 5.68 6 5 C6 5.99 6 6.98 6 8 C6.66 8 7.32 8 8 8 C9.57410012 12.17762903 10.24126552 15.59724481 10.1953125 20.0546875 C10.18564453 21.71757812 10.18564453 21.71757812 10.17578125 23.4140625 C10.15902344 24.55617187 10.14226562 25.69828125 10.125 26.875 C10.11597656 28.0403125 10.10695313 29.205625 10.09765625 30.40625 C10.07417432 33.27104577 10.04133141 36.13541535 10 39 C7.69 39 5.38 39 3 39 C0.27864484 26.05374731 -0.18035566 13.18600253 0 0 Z " fill="#D9CCA6" transform="translate(114,175)"/>
<path d="M0 0 C-0.57002851 3.57677227 -1.51677696 6.18249358 -3.3125 9.3125 C-10.73076107 24.01404242 -10.51489941 38.93110194 -10.25 55 C-10.22988508 57.1432123 -10.21164323 59.28644303 -10.1953125 61.4296875 C-10.15175714 66.6202566 -10.08301066 71.80991814 -10 77 C-13.3 77 -16.6 77 -20 77 C-20 76.67 -20 76.34 -20 76 C-17.69 76 -15.38 76 -13 76 C-13.1103643 71.95779519 -13.24088006 67.91648085 -13.375 63.875 C-13.4059375 62.73289063 -13.436875 61.59078125 -13.46875 60.4140625 C-13.50742188 59.30546875 -13.54609375 58.196875 -13.5859375 57.0546875 C-13.6173584 56.03874512 -13.6487793 55.02280273 -13.68115234 53.97607422 C-14.02616234 50.75580476 -14.9195347 48.04357936 -16 45 C-16.36070324 37.95426336 -14.45964429 30.70290105 -13.125 23.8125 C-12.96370605 22.96929199 -12.80241211 22.12608398 -12.63623047 21.25732422 C-8.33469931 0 -8.33469931 0 0 0 Z " fill="#161717" transform="translate(137,138)"/>
<path d="M0 0 C0.33 0 0.66 0 1 0 C1.86529768 8.42666816 2.0245121 16.60941605 1.5625 25.0625 C0.83207888 40.01470884 0.65432864 54.97065013 0.4375 69.9375 C0.293125 79.528125 0.14875 89.11875 0 99 C33.99 99 67.98 99 103 99 C103 99.33 103 99.66 103 100 C68.68 100 34.36 100 -1 100 C-1.020625 84.428125 -1.04125 68.85625 -1.0625 52.8125 C-1.071604 47.89835205 -1.08070801 42.9842041 -1.09008789 37.92114258 C-1.09460449 31.91345215 -1.09460449 31.91345215 -1.09544373 29.09965515 C-1.09697779 27.13737257 -1.10049172 25.17509093 -1.10557556 23.21281433 C-1.11289649 20.23796962 -1.11390594 17.26318245 -1.11352539 14.28833008 C-1.1171235 13.41632619 -1.12072161 12.5443223 -1.12442875 11.64589405 C-1.11755154 7.62910673 -1.00655043 3.91972916 0 0 Z " fill="#5A544A" transform="translate(11,115)"/>
<path d="M0 0 C2.97 0 5.94 0 9 0 C10.17700048 4.62459244 10.11408412 9.07866462 10.0625 13.8125 C10.05798828 14.60076172 10.05347656 15.38902344 10.04882812 16.20117188 C10.03711312 18.13414761 10.01917998 20.06708393 10 22 C6.7 22 3.4 22 0 22 C-2.04830792 17.90338416 -2.1911512 16.97763731 -1.6875 12.6875 C-1.57921875 11.72585938 -1.4709375 10.76421875 -1.359375 9.7734375 C-0.9364314 6.5094162 -0.5059114 3.25228755 0 0 Z " fill="#1C1D1D" transform="translate(115,262)"/>
<path d="M0 0 C0.75042068 0.0028299 1.50084137 0.00565979 2.27400208 0.00857544 C4.668508 0.01976188 7.06263856 0.04486322 9.45703125 0.0703125 C11.0813748 0.08034431 12.70572422 0.08946981 14.33007812 0.09765625 C18.31004025 0.11969613 22.28972213 0.1542151 26.26953125 0.1953125 C26.26953125 2.8353125 26.26953125 5.4753125 26.26953125 8.1953125 C16.00015725 8.75478203 7.91633408 8.42049549 -1.6796875 4.38671875 C-4.72007976 3.19936966 -7.50279163 2.61631386 -10.73046875 2.1953125 C-7.03888557 -0.26574295 -4.26423321 -0.06044543 0 0 Z " fill="#F4F4F5" transform="translate(95.73046875,291.8046875)"/>
<path d="M0 0 C0.33 1.32 0.66 2.64 1 4 C0.34 4 -0.32 4 -1 4 C-1.12375 5.051875 -1.2475 6.10375 -1.375 7.1875 C-1.91478818 10.48020789 -2.73179598 12.95631034 -4 16 C-4 16.99 -4 17.98 -4 19 C-3.54560547 17.78763672 -3.54560547 17.78763672 -3.08203125 16.55078125 C-2.66308594 15.48214844 -2.24414062 14.41351563 -1.8125 13.3125 C-1.40644531 12.25675781 -1.00039062 11.20101562 -0.58203125 10.11328125 C1.15282824 6.69924912 3.17667884 4.55759681 6 2 C4.87791788 12.16474394 3.33636384 22.03151427 1 32 C-1 32 -3 32 -5 32 C-5 35.63 -5 39.26 -5 43 C-7.15275429 38.69449141 -7.3093718 35.60125752 -7.25 30.9375 C-7.24323242 30.17888672 -7.23646484 29.42027344 -7.22949219 28.63867188 C-7.05198094 18.9209633 -5.41771098 10.70155194 -1 2 C-0.67 1.34 -0.34 0.68 0 0 Z " fill="#B4A687" transform="translate(120,151)"/>
<path d="M0 0 C0.33 0.66 0.66 1.32 1 2 C2.32 2 3.64 2 5 2 C5 2.66 5 3.32 5 4 C5.99 4 6.98 4 8 4 C7.24455376 12.91426564 7.24455376 12.91426564 4 17 C2.25 18.4375 2.25 18.4375 0 19 C-3.75 18.125 -3.75 18.125 -7 17 C-7 16.34 -7 15.68 -7 15 C-7.99 15 -8.98 15 -10 15 C-9.66666667 13.66666667 -9.33333333 12.33333333 -9 11 C-8.87625 10.278125 -8.7525 9.55625 -8.625 8.8125 C-8.41875 8.214375 -8.2125 7.61625 -8 7 C-7.01 6.67 -6.02 6.34 -5 6 C-3.57142881 4.59894424 -3.57142881 4.59894424 -2.3125 2.9375 C-1.1678125 1.4834375 -1.1678125 1.4834375 0 0 Z " fill="#F3F2F0" transform="translate(69,163)"/>
<path d="M0 0 C2.1875 0.3125 2.1875 0.3125 4 1 C3.73445313 1.50789062 3.46890625 2.01578125 3.1953125 2.5390625 C-1.5749869 11.83592337 -3.19886891 20.45548225 -3.25 30.875 C-3.25394775 31.59389404 -3.25789551 32.31278809 -3.26196289 33.0534668 C-3.19412325 39.53599885 -2.24472559 45.76174218 -0.97949219 52.11083984 C0.10622568 57.67923741 0.14914223 60.27628666 -3 65 C-3.12060791 64.10861328 -3.12060791 64.10861328 -3.24365234 63.19921875 C-3.61619063 60.46549987 -3.99555027 57.73276777 -4.375 55 C-4.50132813 54.06542969 -4.62765625 53.13085938 -4.7578125 52.16796875 C-5.33667827 48.02907849 -5.93924962 44.0178717 -7.1015625 40 C-9.42643628 31.09458966 -7.77997069 22.27758479 -5.6875 13.5 C-5.36749023 12.03820312 -5.36749023 12.03820312 -5.04101562 10.546875 C-3.16014455 2.4170203 -3.16014455 2.4170203 0 0 Z " fill="#24201D" transform="translate(117,150)"/>
<path d="M0 0 C10.56 0 21.12 0 32 0 C32.495 0.99 32.495 0.99 33 2 C10.40510967 9.16330419 10.40510967 9.16330419 0 8 C0 5.36 0 2.72 0 0 Z " fill="#DFDFDE" transform="translate(131,292)"/>
<path d="M0 0 C6 0 6 0 8 1 C8.02688151 2.64574566 8.04634123 4.29161413 8.0625 5.9375 C8.07410156 6.85402344 8.08570312 7.77054688 8.09765625 8.71484375 C8 11 8 11 7 12 C6.76807135 13.51469448 6.58784762 15.03754562 6.4375 16.5625 C6.31181641 17.80193359 6.31181641 17.80193359 6.18359375 19.06640625 C6.12300781 19.70449219 6.06242187 20.34257812 6 21 C3.69 21 1.38 21 -1 21 C-0.67 14.07 -0.34 7.14 0 0 Z " fill="#393939" transform="translate(119,229)"/>
<path d="M0 0 C2.64 0 5.28 0 8 0 C8 3.96 8 7.92 8 12 C6.35 12.33 4.7 12.66 3 13 C2.34 15.97 1.68 18.94 1 22 C0.67 22 0.34 22 0 22 C-0.66 19.03 -1.32 16.06 -2 13 C-7.28 12.67 -12.56 12.34 -18 12 C-18 11.67 -18 11.34 -18 11 C-12.39 11 -6.78 11 -1 11 C-0.67 7.37 -0.34 3.74 0 0 Z " fill="#1A1A1A" transform="translate(117,216)"/>
<path d="M0 0 C8.0195816 -0.76225726 11.67478723 1.06630852 17.875 6 C18.65512451 6.59361328 19.43524902 7.18722656 20.23901367 7.79882812 C21.79177694 8.9804776 23.33876428 10.16976206 24.87939453 11.3671875 C27.6379857 13.49123283 30.46785997 15.49292698 33.3125 17.5 C36.88535054 20.09443916 40.03576141 22.72911604 43 26 C38.13908718 24.35432893 34.17535784 21.6319052 29.9375 18.8125 C20.29804653 12.49539247 10.71752672 6.35737829 0 2 C0 1.34 0 0.68 0 0 Z " fill="#817039" transform="translate(167,32)"/>
<path d="M0 0 C1.32 0.66 2.64 1.32 4 2 C3.01 2 2.02 2 1 2 C0.99742187 2.79921875 0.99484375 3.5984375 0.9921875 4.421875 C0.48056456 18.95196655 -6.79126127 29.31720058 -16 40 C-16.99 40.495 -16.99 40.495 -18 41 C-18.495 39.515 -18.495 39.515 -19 38 C-17.41015625 35.42578125 -17.41015625 35.42578125 -15.0625 32.3125 C-8.07204957 22.67906584 -1.70443933 11.93107528 0 0 Z " fill="#595959" transform="translate(155,99)"/>
<path d="M0 0 C3.43069885 3.27493954 3.38704134 6.38453542 3.49235535 10.85675049 C3.49874527 11.75480408 3.50513519 12.65285767 3.51171875 13.578125 C3.52966995 14.5046991 3.54762115 15.43127319 3.56611633 16.38592529 C3.62022701 19.3405708 3.65411757 22.29505469 3.6875 25.25 C3.7206724 27.25523083 3.75516198 29.26044032 3.79101562 31.265625 C3.87595402 36.17696674 3.94276173 41.08826048 4 46 C0.7 46 -2.6 46 -6 46 C-6 45.67 -6 45.34 -6 45 C-3.69 45 -1.38 45 1 45 C0.8896357 40.95779519 0.75911994 36.91648085 0.625 32.875 C0.5940625 31.73289063 0.563125 30.59078125 0.53125 29.4140625 C0.49257812 28.30546875 0.45390625 27.196875 0.4140625 26.0546875 C0.3826416 25.03874512 0.3512207 24.02280273 0.31884766 22.97607422 C-0.02606245 19.75673718 -0.93917639 17.04910409 -2 14 C-2.01171875 11.11328125 -2.01171875 11.11328125 -1.6875 8.3125 C-1.53861328 6.91451172 -1.53861328 6.91451172 -1.38671875 5.48828125 C-1 3 -1 3 0 0 Z " fill="#3A3730" transform="translate(123,169)"/>
<path d="M0 0 C4.56351039 0.48036952 4.56351039 0.48036952 6.3125 2.5625 C7.3366789 6.19367975 7.2400644 9.21898563 7 13 C6.01 14.485 6.01 14.485 5 16 C4.67 13.03 4.34 10.06 4 7 C3.9175 8.44375 3.835 9.8875 3.75 11.375 C2.84049608 20.31845518 -0.99573568 27.65767776 -6 35 C-6.33 33.68 -6.66 32.36 -7 31 C-6.34 31 -5.68 31 -5 31 C-5 29.02 -5 27.04 -5 25 C-3.68 24.67 -2.36 24.34 -1 24 C-0.93941406 23.36191406 -0.87882813 22.72382812 -0.81640625 22.06640625 C-0.73261719 21.24011719 -0.64882812 20.41382812 -0.5625 19.5625 C-0.48128906 18.73878906 -0.40007812 17.91507813 -0.31640625 17.06640625 C0 15 0 15 1 14 C1.09919077 12.39836084 1.12969898 10.79220082 1.125 9.1875 C1.12757813 8.31480469 1.13015625 7.44210938 1.1328125 6.54296875 C1.01114834 4.21345785 0.65514709 2.23061985 0 0 Z " fill="#BBBBB9" transform="translate(149,86)"/>
<path d="M0 0 C0.66 0 1.32 0 2 0 C1.4973857 4.94237393 0.86257518 9.79528254 0 14.6875 C-1.17489056 21.9528159 -1.394989 29.22219514 -1.5703125 36.57299805 C-1.59867188 37.48992432 -1.62703125 38.40685059 -1.65625 39.3515625 C-1.67494141 40.17479004 -1.69363281 40.99801758 -1.71289062 41.84619141 C-2 44 -2 44 -4 47 C-4.82555811 13.29182746 -4.82555811 13.29182746 0 0 Z " fill="#BBB39B" transform="translate(130,153)"/>
<path d="M0 0 C3.3 0 6.6 0 10 0 C6.39136279 2.70647791 3.12763303 4.37396274 -1 6 C-2.03447266 6.42345703 -2.03447266 6.42345703 -3.08984375 6.85546875 C-4.12818359 7.26732422 -4.12818359 7.26732422 -5.1875 7.6875 C-5.82042969 7.93886719 -6.45335938 8.19023437 -7.10546875 8.44921875 C-9 9 -9 9 -13 9 C-13 9.66 -13 10.32 -13 11 C-14.26418246 11.69965443 -15.53665402 12.38434763 -16.8125 13.0625 C-17.52019531 13.44535156 -18.22789063 13.82820312 -18.95703125 14.22265625 C-21 15 -21 15 -24 14 C-20.25725569 10.78280233 -16.35321023 8.46182237 -11.9375 6.3125 C-11.32583984 6.00505859 -10.71417969 5.69761719 -10.08398438 5.38085938 C-7.62427488 4.16562993 -5.29994356 3.073627 -2.62890625 2.41796875 C-2.09136719 2.28003906 -1.55382812 2.14210937 -1 2 C-0.67 1.34 -0.34 0.68 0 0 Z " fill="#7C7B7B" transform="translate(101,149)"/>
<path d="M0 0 C3 2 3 2 3.60009766 4.19555664 C3.70370605 5.09137451 3.80731445 5.98719238 3.9140625 6.91015625 C4.03523438 7.90080078 4.15640625 8.89144531 4.28125 9.91210938 C4.3946875 10.95173828 4.508125 11.99136719 4.625 13.0625 C4.74617188 14.07505859 4.86734375 15.08761719 4.9921875 16.13085938 C5.22986537 18.13432884 5.45693421 20.13908824 5.67285156 22.14501953 C5.88355702 23.98381778 6.12780275 25.81923675 6.41308594 27.64794922 C6.7734375 30.05859375 6.7734375 30.05859375 7 34 C5.51416016 35.74633789 5.51416016 35.74633789 4 37 C3.87153687 36.09290283 3.87153687 36.09290283 3.74047852 35.16748047 C3.34856968 32.40321329 2.95554417 29.63910597 2.5625 26.875 C2.42779297 25.92367187 2.29308594 24.97234375 2.15429688 23.9921875 C1.61489278 20.20320267 1.07543824 16.42483641 0.40625 12.65625 C-0.01005652 9.93424583 -0.09967607 7.37602914 -0.0625 4.625 C-0.05347656 3.75101563 -0.04445313 2.87703125 -0.03515625 1.9765625 C-0.02355469 1.32429687 -0.01195313 0.67203125 0 0 Z " fill="#0F0D0C" transform="translate(110,178)"/>
<path d="M0 0 C0.66 0 1.32 0 2 0 C1.67 0.66 1.34 1.32 1 2 C0.67 1.34 0.34 0.68 0 0 Z M-3 2 C-1.68 2 -0.36 2 1 2 C0.979375 2.94875 0.95875 3.8975 0.9375 4.875 C0.77448174 7.90666283 0.77448174 7.90666283 2 10 C1.67 10.66 1.34 11.32 1 12 C-0.32 12 -1.64 12 -3 12 C-3.33 12.99 -3.66 13.98 -4 15 C-5.32 15 -6.64 15 -8 15 C-9.125 10.25 -9.125 10.25 -8 8 C-7.34 8 -6.68 8 -6 8 C-5.87625 7.38125 -5.7525 6.7625 -5.625 6.125 C-5 4 -5 4 -3 2 Z M-6 11 C-5 13 -5 13 -5 13 Z M-12 14 C-11.34 14 -10.68 14 -10 14 C-10 14.66 -10 15.32 -10 16 C-10.99 16.33 -11.98 16.66 -13 17 C-12.67 16.01 -12.34 15.02 -12 14 Z " fill="#E3E2E3" transform="translate(137,110)"/>
<path d="M0 0 C6.54886491 -1.04867445 10.62570484 2.58569703 15.75 6.125 C17.45191778 7.27522578 19.15504295 8.42366708 20.859375 9.5703125 C21.70064941 10.14023926 22.54192383 10.71016602 23.40869141 11.29736328 C26.82315182 13.54085743 30.33001388 15.6061348 33.86767578 17.6484375 C36.71085303 19.45057046 38.77983786 21.48381624 41 24 C36.17571877 22.33187918 32.10753887 19.69797503 27.8125 17 C18.70968171 11.35111474 9.40539625 6.12516273 0 1 C0 0.67 0 0.34 0 0 Z " fill="#A79A46" transform="translate(179,42)"/>
<path d="M0 0 C0.75042068 0.0028299 1.50084137 0.00565979 2.27400208 0.00857544 C4.668508 0.01976188 7.06263856 0.04486322 9.45703125 0.0703125 C11.0813748 0.08034431 12.70572422 0.08946981 14.33007812 0.09765625 C18.31004025 0.11969613 22.28972213 0.1542151 26.26953125 0.1953125 C26.26953125 2.8353125 26.26953125 5.4753125 26.26953125 8.1953125 C16.00015725 8.75478203 7.91633408 8.42049549 -1.6796875 4.38671875 C-4.72007976 3.19936966 -7.50279163 2.61631386 -10.73046875 2.1953125 C-7.03888557 -0.26574295 -4.26423321 -0.06044543 0 0 Z M-1.73046875 1.1953125 C-1.73046875 1.8553125 -1.73046875 2.5153125 -1.73046875 3.1953125 C7.5917481 7.08390947 15.32768724 7.68425565 25.26953125 7.1953125 C25.26953125 5.2153125 25.26953125 3.2353125 25.26953125 1.1953125 C16.35953125 1.1953125 7.44953125 1.1953125 -1.73046875 1.1953125 Z " fill="#BBBBBB" transform="translate(95.73046875,291.8046875)"/>
<path d="M0 0 C2 3 2 3 3 5.125 C3.85860158 7.17044538 3.85860158 7.17044538 6 8 C12.09538934 8.6219785 16.7955018 7.06015559 22 4 C22.33 3.34 22.66 2.68 23 2 C23.99 2.33 24.98 2.66 26 3 C24.15174754 7.68090026 21.20142725 9.06737607 16.80078125 11.15625 C12.16384193 12.55315222 8.50635543 11.3784146 4 10 C1.45359918 9.23718969 1.45359918 9.23718969 -1 9 C-1.99 9.66 -2.98 10.32 -4 11 C-3.71125 10.29875 -3.4225 9.5975 -3.125 8.875 C-1.97866412 5.94547497 -0.97374346 2.99078347 0 0 Z " fill="#D9D8D8" transform="translate(74,145)"/>
<path d="M0 0 C3.3 0 6.6 0 10 0 C10 2.64 10 5.28 10 8 C7.03 8 4.06 8 1 8 C-0.35439668 5.29120665 -0.06501451 2.99066732 0 0 Z " fill="#F0EFEE" transform="translate(114,275)"/>
<path d="M0 0 C5.75 -0.125 5.75 -0.125 8 1 C8 4.3 8 7.6 8 11 C5.36 11 2.72 11 0 11 C0 7.37 0 3.74 0 0 Z " fill="#2F2F2F" transform="translate(122,320)"/>
<path d="M0 0 C0 8.4541087 -4.27272395 12.19674018 -10 18 C-11.9597407 19.92616912 -13.72609148 21.42992031 -16 23 C-16.99 22.67 -17.98 22.34 -19 22 C-18.20335938 21.34644531 -18.20335938 21.34644531 -17.390625 20.6796875 C-13.12128555 17.08035388 -9.96249735 13.77822153 -7 9 C-4.70960393 5.96609845 -2.35845756 2.98119635 0 0 Z " fill="#908F8E" transform="translate(140,124)"/>
<path d="M0 0 C1.32 0.33 2.64 0.66 4 1 C3.67 2.65 3.34 4.3 3 6 C2.34 6 1.68 6 1 6 C0.9175 7.051875 0.835 8.10375 0.75 9.1875 C-0.08849644 13.44985689 -1.09143308 14.85560333 -4 18 C-5.04169279 19.27081192 -6.08335831 20.5416462 -7.125 21.8125 C-8.6328125 23.64453125 -8.6328125 23.64453125 -10 25 C-10.66 25 -11.32 25 -12 25 C-12 23 -12 23 -10.625 21.375 C-9 20 -9 20 -7 20 C-6.731875 18.865625 -6.46375 17.73125 -6.1875 16.5625 C-5.795625 15.386875 -5.40375 14.21125 -5 13 C-4.01 12.67 -3.02 12.34 -2 12 C-2 11.01 -2 10.02 -2 9 C-2.66 8.34 -3.32 7.68 -4 7 C-4 6.34 -4 5.68 -4 5 C-3.01 5 -2.02 5 -1 5 C-0.67 3.35 -0.34 1.7 0 0 Z " fill="#CBCBCA" transform="translate(141,111)"/>
<path d="M0 0 C0.93065133 2.60582371 1.14917407 3.64198224 0.0625 6.25 C-0.4634375 7.11625 -0.4634375 7.11625 -1 8 C-0.01 8 0.98 8 2 8 C2 8.66 2 9.32 2 10 C2.99 9.67 3.98 9.34 5 9 C5 9.66 5 10.32 5 11 C8.20984995 11.35664999 9.54816963 11.35880647 12.125 9.3125 C14.0159108 6.98037668 15.54314488 4.62233922 17 2 C17.99 2.33 18.98 2.66 20 3 C19.06862408 4.29608947 18.1296434 5.58671632 17.1875 6.875 C16.66542969 7.59429687 16.14335938 8.31359375 15.60546875 9.0546875 C14 11 14 11 11 13 C5.74629229 13.4956328 2.53629227 12.6553906 -2 10 C-2.25 3.375 -2.25 3.375 0 0 Z " fill="#D9CAA5" transform="translate(60,170)"/>
<path d="M0 0 C3.3 0 6.6 0 10 0 C11.45781334 4.37344001 11.0598032 8.39515357 11 13 C7.7 13 4.4 13 1 13 C1 12.67 1 12.34 1 12 C3.97 12 6.94 12 10 12 C10 9.36 10 6.72 10 4 C6.7 4 3.4 4 0 4 C0 5.65 0 7.3 0 9 C-0.33 9 -0.66 9 -1 9 C-0.67 6.03 -0.34 3.06 0 0 Z " fill="#7E7E7D" transform="translate(114,271)"/>
<path d="M0 0 C1.98 0 3.96 0 6 0 C6 3.3 6 6.6 6 10 C4.02 10 2.04 10 0 10 C0 6.7 0 3.4 0 0 Z " fill="#4D4D4F" transform="translate(118,217)"/>
<path d="M0 0 C-0.50072359 6.38422576 -0.50072359 6.38422576 -2.875 9.3125 C-5.28348463 12.35852468 -6.4263561 15.17247926 -7.75 18.8125 C-8.17796875 19.97394531 -8.6059375 21.13539063 -9.046875 22.33203125 C-9.36140625 23.21246094 -9.6759375 24.09289062 -10 25 C-10.33 25 -10.66 25 -11 25 C-11.22058508 20.40907294 -10.5361591 16.94544748 -9 12.625 C-8.62875 11.56539062 -8.2575 10.50578125 -7.875 9.4140625 C-7.58625 8.61742187 -7.2975 7.82078125 -7 7 C-6.34 7 -5.68 7 -5 7 C-4.8453125 6.1028125 -4.8453125 6.1028125 -4.6875 5.1875 C-4.0011029 3.00350922 -2.67827481 0 0 0 Z " fill="#D5CFC7" transform="translate(126,148)"/>
<path d="M0 0 C0.66 0.33 1.32 0.66 2 1 C-4.93 7.93 -11.86 14.86 -19 22 C-19.66 21.67 -20.32 21.34 -21 21 C-14.53207552 13.40018873 -7.80356101 6.24284881 0 0 Z " fill="#D3D3D3" transform="translate(117,90)"/>
<path d="M0 0 C2.97 0 5.94 0 9 0 C9 1.98 9 3.96 9 6 C6.03 6 3.06 6 0 6 C0 4.02 0 2.04 0 0 Z " fill="#E9E9E9" transform="translate(116,253)"/>
<path d="M0 0 C0.66 0 1.32 0 2 0 C1.67 0.66 1.34 1.32 1 2 C0.67 1.34 0.34 0.68 0 0 Z M-1 2 C-0.34 2.33 0.32 2.66 1 3 C0.67 3.66 0.34 4.32 0 5 C1.98 4.34 3.96 3.68 6 3 C6.66 3.66 7.32 4.32 8 5 C6.02 5.66 4.04 6.32 2 7 C2 7.66 2 8.32 2 9 C-0.31 9 -2.62 9 -5 9 C-5 7.68 -5 6.36 -5 5 C-3 3.25 -3 3.25 -1 2 Z " fill="#D7D7D6" transform="translate(115,139)"/>
<path d="M0 0 C4.3215133 5.63675647 4.18282488 9.33254337 4.1875 16.3125 C4.19974609 17.26318359 4.21199219 18.21386719 4.22460938 19.19335938 C4.24274176 27.84250638 4.24274176 27.84250638 2 32 C0.11143953 28.22287907 1.4047178 23.16516444 1.77148438 19.00390625 C2.16799497 13.50744897 1.48620394 9.30060569 0 4 C0 2.68 0 1.36 0 0 Z " fill="#AEAEAE" transform="translate(177,66)"/>
<path d="M0 0 C0.66 0 1.32 0 2 0 C2.91297308 4.97063121 2.91297308 9.02936879 2 14 C1.34 13.67 0.68 13.34 0 13 C-0.33 15.31 -0.66 17.62 -1 20 C-1.33 20 -1.66 20 -2 20 C-2.23668569 12.96517526 -1.7879537 6.8165735 0 0 Z " fill="#362F27" transform="translate(111,166)"/>
<path d="M0 0 C0.33 0 0.66 0 1 0 C1.01458252 0.7113208 1.02916504 1.4226416 1.04418945 2.15551758 C1.11861006 5.37506332 1.21529 8.59356518 1.3125 11.8125 C1.33505859 12.93205078 1.35761719 14.05160156 1.38085938 15.20507812 C1.41630859 16.27822266 1.45175781 17.35136719 1.48828125 18.45703125 C1.51446533 19.44678955 1.54064941 20.43654785 1.56762695 21.45629883 C2.05521216 24.32481958 2.74871895 25.23094912 5 27 C4.01 27.66 3.02 28.32 2 29 C1.42006301 31.19454681 1.42006301 31.19454681 1.3125 33.625 C1.24675781 34.44226563 1.18101562 35.25953125 1.11328125 36.1015625 C1.05720703 37.04128906 1.05720703 37.04128906 1 38 C0.67 38 0.34 38 0 38 C0 25.46 0 12.92 0 0 Z " fill="#0B0B0B" transform="translate(128,292)"/>
<path d="M0 0 C2.97 0 5.94 0 9 0 C8.67 0.66 8.34 1.32 8 2 C15.425 6.95 15.425 6.95 23 12 C22.01 12.495 22.01 12.495 21 13 C18.49609375 11.70703125 18.49609375 11.70703125 15.4375 9.8125 C10.42139508 6.78710499 5.42266806 4.2046706 0 2 C0 1.34 0 0.68 0 0 Z " fill="#7A6B34" transform="translate(167,32)"/>
<path d="M0 0 C-7.41226226 1.18982084 -13.69860023 0.67959957 -21 -1 C-21.33 -0.01 -21.66 0.98 -22 2 C-22.66 1.67 -23.32 1.34 -24 1 C-24 0.01 -24 -0.98 -24 -2 C-20.89635771 -2.19696449 -17.79207808 -2.38093262 -14.6875 -2.5625 C-13.36588867 -2.64661133 -13.36588867 -2.64661133 -12.01757812 -2.73242188 C-10.74624023 -2.80493164 -10.74624023 -2.80493164 -9.44921875 -2.87890625 C-8.27879028 -2.94960327 -8.27879028 -2.94960327 -7.0847168 -3.02172852 C-3.84343192 -2.98794536 -2.2851453 -2.2851453 0 0 Z " fill="#989898" transform="translate(122,150)"/>
<path d="M0 0 C2 2 2 2 2 6 C4.97 6 7.94 6 11 6 C11 4.02 11 2.04 11 0 C11.99 0 12.98 0 14 0 C14 2.31 14 4.62 14 7 C11.87506859 7.02693575 9.75004088 7.04636628 7.625 7.0625 C6.44164063 7.07410156 5.25828125 7.08570313 4.0390625 7.09765625 C1 7 1 7 -1 6 C-0.67 4.02 -0.34 2.04 0 0 Z " fill="#666666" transform="translate(114,253)"/>
<path d="M0 0 C0.66 0.33 1.32 0.66 2 1 C-1.20752618 3.65766455 -4.38005795 5.94321475 -8 8 C-8.74121094 8.43957031 -9.48242188 8.87914062 -10.24609375 9.33203125 C-11.45458984 10.03392578 -11.45458984 10.03392578 -12.6875 10.75 C-13.45449219 11.19859375 -14.22148438 11.6471875 -15.01171875 12.109375 C-15.66785156 12.40328125 -16.32398437 12.6971875 -17 13 C-17.66 12.67 -18.32 12.34 -19 12 C-5.67902665 2.34994206 -5.67902665 2.34994206 0 0 Z " fill="#BAB093" transform="translate(105,155)"/>
<path d="M0 0 C-1.423125 0.37125 -1.423125 0.37125 -2.875 0.75 C-6.43303673 2.17321469 -6.55234022 2.69106337 -8 6 C-9.8125 7.375 -9.8125 7.375 -12 8 C-14.75 7.125 -14.75 7.125 -17 6 C-14 4 -14 4 -12 4 C-12 3.34 -12 2.68 -12 2 C-10.37787941 1.47026689 -8.75218416 0.95146893 -7.125 0.4375 C-6.22007813 0.14746094 -5.31515625 -0.14257812 -4.3828125 -0.44140625 C-2 -1 -2 -1 0 0 Z " fill="#BBBBBB" transform="translate(100,156)"/>
<path d="M0 0 C0 1.98 0 3.96 0 6 C-3.01031744 6.93423645 -3.86650268 7.04449911 -7 6 C-7 7.32 -7 8.64 -7 10 C-8.65 9.67 -10.3 9.34 -12 9 C-11.01 8.01 -10.02 7.02 -9 6 C-9.33 5.34 -9.66 4.68 -10 4 C-8.35 3.34 -6.7 2.68 -5 2 C-5 2.66 -5 3.32 -5 4 C-4.360625 3.34 -3.72125 2.68 -3.0625 2 C-1 0 -1 0 0 0 Z " fill="#978857" transform="translate(174,26)"/>
<path d="M0 0 C2.61289776 3.00166801 3.36930244 4.79627311 3.29296875 8.765625 C3.28330078 9.65507812 3.27363281 10.54453125 3.26367188 11.4609375 C3.23853516 12.38132813 3.21339844 13.30171875 3.1875 14.25 C3.17396484 15.18585938 3.16042969 16.12171875 3.14648438 17.0859375 C3.11119954 19.39121327 3.06190281 21.6953106 3 24 C2.67 24 2.34 24 2 24 C2 18.72 2 13.44 2 8 C1.34 8 0.68 8 0 8 C-0.33 9.98 -0.66 11.96 -1 14 C-2.13732426 10.59598052 -1.83989957 8.22543336 -1.0625 4.75 C-0.86785156 3.85796875 -0.67320313 2.9659375 -0.47265625 2.046875 C-0.31667969 1.37140625 -0.16070312 0.6959375 0 0 Z " fill="#423E34" transform="translate(123,169)"/>
<path d="M0 0 C1.65 0 3.3 0 5 0 C5 2.64 5 5.28 5 8 C3.35 8 1.7 8 0 8 C0 5.36 0 2.72 0 0 Z " fill="#DBDAD9" transform="translate(120,230)"/>
<path d="M0 0 C0.33 1.32 0.66 2.64 1 4 C10.57 4 20.14 4 30 4 C30 4.33 30 4.66 30 5 C14.655 5.495 14.655 5.495 -1 6 C-0.67 4.02 -0.34 2.04 0 0 Z " fill="#2F2F2E" transform="translate(176,103)"/>
<path d="M0 0 C0.66 0 1.32 0 2 0 C2 6.6 2 13.2 2 20 C1.67 20 1.34 20 1 20 C-0.59295252 12.95678017 -1.1710655 7.14349955 0 0 Z " fill="#0E0D0B" transform="translate(123,177)"/>
<path d="M0 0 C0.99 0.99 1.98 1.98 3 3 C2.2575 3.515625 1.515 4.03125 0.75 4.5625 C-2.53628545 7.47534392 -3.98763759 10.12433906 -6 14 C-6.6796875 12.29296875 -6.6796875 12.29296875 -7 10 C-5.8203125 7.67578125 -5.8203125 7.67578125 -4.125 5.3125 C-3.57070312 4.52488281 -3.01640625 3.73726562 -2.4453125 2.92578125 C-1 1 -1 1 0 0 Z " fill="#D1D1CF" transform="translate(139,138)"/>
<path d="M0 0 C0.66 0 1.32 0 2 0 C0.71480435 2.86697492 -0.57129254 4.97607712 -3 7 C-3.66 7 -4.32 7 -5 7 C-6.4606285 9.64738916 -7 10.89448334 -7 14 C-10.875 12.25 -10.875 12.25 -12 10 C-10.35 9.34 -8.7 8.68 -7 8 C-7.33 7.34 -7.66 6.68 -8 6 C-7.360625 5.87625 -6.72125 5.7525 -6.0625 5.625 C-5.381875 5.41875 -4.70125 5.2125 -4 5 C-3.67 4.34 -3.34 3.68 -3 3 C-2.34 3 -1.68 3 -1 3 C-0.67 2.01 -0.34 1.02 0 0 Z " fill="#B6B5B5" transform="translate(129,136)"/>
<path d="M0 0 C4.56351039 0.48036952 4.56351039 0.48036952 6.3125 2.5625 C7.3366789 6.19367975 7.2400644 9.21898563 7 13 C6.01 14.485 6.01 14.485 5 16 C4.67 12.37 4.34 8.74 4 5 C3.01 4.67 2.02 4.34 1 4 C0.3125 1.9375 0.3125 1.9375 0 0 Z " fill="#ABABAB" transform="translate(149,86)"/>
<path d="M0 0 C8.08990978 3.08674677 15.6094259 7.12758056 22 13 C18.50884396 13 17.45322036 12.2565091 14.55078125 10.41015625 C13.70322266 9.87326172 12.85566406 9.33636719 11.98242188 8.78320312 C11.10134766 8.21537109 10.22027344 7.64753906 9.3125 7.0625 C8.41982422 6.49853516 7.52714844 5.93457031 6.60742188 5.35351562 C1.77075436 2.26824643 1.77075436 2.26824643 0 1 C0 0.67 0 0.34 0 0 Z " fill="#93884C" transform="translate(198,52)"/>
<path d="M0 0 C0.33 0 0.66 0 1 0 C1.41599768 2.93592608 1.8084144 5.87178274 2.1875 8.8125 C2.30802734 9.64587891 2.42855469 10.47925781 2.55273438 11.33789062 C2.65263672 12.14033203 2.75253906 12.94277344 2.85546875 13.76953125 C2.95496826 14.50792236 3.05446777 15.24631348 3.15698242 16.00708008 C3 18 3 18 1.5090332 19.7644043 C1.01105225 20.17215088 0.51307129 20.57989746 0 21 C-1.33257403 6.21867882 -1.33257403 6.21867882 0 0 Z " fill="#322E28" transform="translate(114,194)"/>
<path d="M0 0 C0.33 0 0.66 0 1 0 C2.51708428 12.66970387 2.51708428 12.66970387 0 18 C-0.33 18 -0.66 18 -1 18 C-1.02698422 15.56242587 -1.04683099 13.12515085 -1.0625 10.6875 C-1.07087891 9.99720703 -1.07925781 9.30691406 -1.08789062 8.59570312 C-1.10307906 5.4516975 -1.00193327 3.00579981 0 0 Z " fill="#2B2924" transform="translate(125,157)"/>
<path d="M0 0 C1.58473048 0.08015255 3.16906283 0.1767325 4.75 0.3125 C0.18596559 3.8344293 -3.37396752 5.64827328 -9.25 5.3125 C-6.77450837 0.81160612 -4.94506959 -0.03502174 0 0 Z " fill="#555555" transform="translate(106.25,148.6875)"/>
<path d="M0 0 C0 3.701207 -0.02793257 6.76282326 -2.375 9.75 C-4 11 -4 11 -7 12 C-7.66 12.66 -8.32 13.32 -9 14 C-8.42108423 10.09231854 -6.52683045 7.96000138 -4 5 C-3.2575 4.071875 -2.515 3.14375 -1.75 2.1875 C-1.1725 1.465625 -0.595 0.74375 0 0 Z " fill="#A2A1A1" transform="translate(140,124)"/>
<path d="M0 0 C-1.5529276 0.87144869 -3.11785436 1.72153657 -4.6875 2.5625 C-5.55761719 3.03816406 -6.42773438 3.51382813 -7.32421875 4.00390625 C-10.38328753 5.14268368 -11.91863039 4.92718689 -15 4 C-12.69989666 1.3165461 -10.94306063 0.46156586 -7.5 -0.25 C-6.7265625 -0.42015625 -5.953125 -0.5903125 -5.15625 -0.765625 C-3 -1 -3 -1 0 0 Z " fill="#BEBDBB" transform="translate(115,151)"/>
<path d="M0 0 C-0.37596209 2.78211944 -0.67318459 4.5879284 -2.4375 6.8125 C-4 8 -4 8 -6 8 C-6.99 8.66 -7.98 9.32 -9 10 C-8.42110619 6.71245489 -7.45171589 5.06327505 -5.0625 2.75 C-4.53785156 2.22921875 -4.01320312 1.7084375 -3.47265625 1.171875 C-2 0 -2 0 0 0 Z " fill="#252526" transform="translate(137,138)"/>
<path d="M0 0 C-1.19904059 3.59712178 -2.45062139 4.37886729 -5.4375 6.625 C-6.24058594 7.23601562 -7.04367188 7.84703125 -7.87109375 8.4765625 C-10 10 -10 10 -12 11 C-12.33 10.01 -12.66 9.02 -13 8 C-11.2126038 6.66094733 -9.41995047 5.32890934 -7.625 4 C-6.62726563 3.2575 -5.62953125 2.515 -4.6015625 1.75 C-2 0 -2 0 0 0 Z " fill="#242424" transform="translate(124,84)"/>
<path d="M0 0 C1 3 1 3 -0.43359375 6.13671875 C-1.09135973 7.3260128 -1.75977815 8.50946371 -2.4375 9.6875 C-2.77587891 10.29400391 -3.11425781 10.90050781 -3.46289062 11.52539062 C-4.29957915 13.0220025 -5.14862831 14.51169189 -6 16 C-6.66 15.67 -7.32 15.34 -8 15 C-6.62712658 11.30123909 -4.93644547 8.0485524 -2.875 4.6875 C-2.33617187 3.80449219 -1.79734375 2.92148438 -1.2421875 2.01171875 C-0.83226562 1.34785156 -0.42234375 0.68398437 0 0 Z " fill="#BCBCBB" transform="translate(151,110)"/>
<path d="M0 0 C0.93065133 2.60582371 1.14917407 3.64198224 0.0625 6.25 C-0.4634375 7.11625 -0.4634375 7.11625 -1 8 C-0.01 8 0.98 8 2 8 C2 8.66 2 9.32 2 10 C2.99 9.67 3.98 9.34 5 9 C5.33 9.99 5.66 10.98 6 12 C2.28400809 12.20086443 1.22791555 12.1519437 -2 10 C-2.39507893 5.65413172 -2.45331002 3.67996503 0 0 Z " fill="#E7DEC7" transform="translate(60,170)"/>
<path d="M0 0 C0.33 0 0.66 0 1 0 C1 3.63 1 7.26 1 11 C0.01 11 -0.98 11 -2 11 C-2.25 3.375 -2.25 3.375 0 0 Z " fill="#060707" transform="translate(118,236)"/>
<path d="M0 0 C1.98 0.495 1.98 0.495 4 1 C4 1.66 4 2.32 4 3 C2.68 3 1.36 3 0 3 C-0.33 3.66 -0.66 4.32 -1 5 C-0.67 3.35 -0.34 1.7 0 0 Z M-3 5 C-1.68 5.66 -0.36 6.32 1 7 C0.01 7.99 -0.98 8.98 -2 10 C-2.99 9.67 -3.98 9.34 -5 9 C-4.34 7.68 -3.68 6.36 -3 5 Z " fill="#E6E5E5" transform="translate(115,133)"/>
<path d="M0 0 C0 4.07746885 -1.52068051 5.83198065 -4 9 C-6.25 9.875 -6.25 9.875 -8 10 C-6.34908222 5.70761377 -3.26245434 3.1206085 0 0 Z " fill="#6F6F6C" transform="translate(168,119)"/>
<path d="M0 0 C1.134375 0.020625 2.26875 0.04125 3.4375 0.0625 C4.0975 1.3825 4.7575 2.7025 5.4375 4.0625 C3.5625 4.6875 3.5625 4.6875 1.4375 5.0625 C0.7775 4.4025 0.1175 3.7425 -0.5625 3.0625 C-1.87997324 2.36501417 -3.21164193 1.69290043 -4.5625 1.0625 C-3.5625 0.0625 -3.5625 0.0625 0 0 Z " fill="#DADADA" transform="translate(146.5625,82.9375)"/>
<path d="M0 0 C0.33 0 0.66 0 1 0 C1.99 4.62 2.98 9.24 4 14 C2.68 13.67 1.36 13.34 0 13 C0 8.71 0 4.42 0 0 Z " fill="#CAC8C9" transform="translate(160,35)"/>
<path d="M0 0 C2.475 0.99 2.475 0.99 5 2 C4.6875 3.9375 4.6875 3.9375 4 6 C3.01 6.33 2.02 6.66 1 7 C1 6.34 1 5.68 1 5 C0.34 4.67 -0.32 4.34 -1 4 C-0.67 2.68 -0.34 1.36 0 0 Z " fill="#D5D3CF" transform="translate(168,23)"/>
<path d="M0 0 C0.93423645 3.01031744 1.04449911 3.86650268 0 7 C-1.95597184 8.39712274 -3.95436401 9.73779907 -6 11 C-4.74194623 6.49197399 -3.09592835 3.5087188 0 0 Z " fill="#BAB4A1" transform="translate(125,153)"/>
<path d="M0 0 C-0.25 3.375 -0.25 3.375 -1 7 C-3.0625 8.4375 -3.0625 8.4375 -5 9 C-5.25 6.75 -5.25 6.75 -5 4 C-1.64864865 0 -1.64864865 0 0 0 Z " fill="#EFEEEE" transform="translate(126,148)"/>
<path d="M0 0 C3.26008643 3.16952847 6.22237877 6.39937989 9 10 C8.01 10.495 8.01 10.495 7 11 C7 10.34 7 9.68 7 9 C6.401875 8.731875 5.80375 8.46375 5.1875 8.1875 C2.95762543 6.97699666 1.54509308 6.008621 0 4 C0 2.68 0 1.36 0 0 Z " fill="#BDBCBC" transform="translate(164,49)"/>
<path d="M0 0 C0.33 0 0.66 0 1 0 C1 2.64 1 5.28 1 8 C0.67 8 0.34 8 0 8 C-0.33 10.31 -0.66 12.62 -1 15 C-1.33 15 -1.66 15 -2 15 C-2.05429959 13.25034642 -2.09292823 11.50020213 -2.125 9.75 C-2.15980469 8.28820312 -2.15980469 8.28820312 -2.1953125 6.796875 C-1.99862781 3.9803502 -1.44568916 2.39050964 0 0 Z " fill="#231E19" transform="translate(111,171)"/>
<path d="M0 0 C5.03985731 0.44469329 7.37634988 2.71343362 11 6 C10.01 6.495 10.01 6.495 9 7 C7.4972763 6.02501855 5.99788037 5.04490611 4.5 4.0625 C3.6646875 3.51722656 2.829375 2.97195312 1.96875 2.41015625 C1.3190625 1.94480469 0.669375 1.47945312 0 1 C0 0.67 0 0.34 0 0 Z " fill="#A18D41" transform="translate(174,33)"/>
<path d="M0 0 C0.33 0.66 0.66 1.32 1 2 C0.22265625 3.7265625 0.22265625 3.7265625 -0.9375 5.625 C-1.618125 6.73875 -2.29875 7.8525 -3 9 C-3.99 9 -4.98 9 -6 9 C-4.47291037 5.56404834 -2.40072955 2.88087546 0 0 Z " fill="#E2DED1" transform="translate(67,161)"/>
<path d="M0 0 C1.32 0.99 2.64 1.98 4 3 C3.34 3 2.68 3 2 3 C1.34 4.32 0.68 5.64 0 7 C-1.125 2.25 -1.125 2.25 0 0 Z M-4 6 C-3.34 6 -2.68 6 -2 6 C-2 6.66 -2 7.32 -2 8 C-2.99 8.33 -3.98 8.66 -5 9 C-4.67 8.01 -4.34 7.02 -4 6 Z " fill="#E8E8E8" transform="translate(129,118)"/>
<path d="M0 0 C3.99500618 1.3697164 6.80009492 3.25722422 10 6 C9.01 6.495 9.01 6.495 8 7 C3 4.54385965 3 4.54385965 1 3 C0.67 2.01 0.34 1.02 0 0 Z " fill="#B19F50" transform="translate(189,46)"/>
<path d="M0 0 C0.99 0 1.98 0 3 0 C3 2.31 3 4.62 3 7 C2.01 7 1.02 7 0 7 C0 4.69 0 2.38 0 0 Z " fill="#474747" transform="translate(125,253)"/>
<path d="M0 0 C1.32 0 2.64 0 4 0 C4 1.32 4 2.64 4 4 C4.66 4 5.32 4 6 4 C6 4.99 6 5.98 6 7 C4.68 7.33 3.36 7.66 2 8 C2.33 6.02 2.66 4.04 3 2 C2.01 2 1.02 2 0 2 C0 1.34 0 0.68 0 0 Z " fill="#D8D5D1" transform="translate(74,165)"/>
<path d="M0 0 C0.66 0.33 1.32 0.66 2 1 C-1.19990508 3.74277578 -4.00499382 5.6302836 -8 7 C-6.89300099 3.78970286 -5.98396175 2.99031023 -3 1.1875 C-1.515 0.5996875 -1.515 0.5996875 0 0 Z " fill="#ADA697" transform="translate(105,155)"/>
<path d="M0 0 C0.99 0.33 1.98 0.66 3 1 C1.9024777 3.99324263 1.32317108 4.84610901 -1.625 6.25 C-2.40875 6.4975 -3.1925 6.745 -4 7 C-3.43628586 3.73045798 -2.50037734 2.17424117 0 0 Z " fill="#D0D0D1" transform="translate(97,147)"/>
<path d="M0 0 C5.03985731 0.44469329 7.37634988 2.71343362 11 6 C7.61121488 6 6.60242783 5.35638802 3.8125 3.5625 C2.73935547 2.88380859 2.73935547 2.88380859 1.64453125 2.19140625 C1.10183594 1.79824219 0.55914062 1.40507813 0 1 C0 0.67 0 0.34 0 0 Z " fill="#78693D" transform="translate(199,51)"/>
<path d="M0 0 C-0.33 0.99 -0.66 1.98 -1 3 C-4.5625 4.6875 -4.5625 4.6875 -8 6 C-6.24081631 1.94034532 -4.71412298 0 0 0 Z " fill="#E9E8E9" transform="translate(97,147)"/>
<path d="M0 0 C0 1.98 0 3.96 0 6 C-0.66 5.34 -1.32 4.68 -2 4 C-3.98 4.99 -3.98 4.99 -6 6 C-6 5.34 -6 4.68 -6 4 C-5.34 4 -4.68 4 -4 4 C-4.33 3.01 -4.66 2.02 -5 1 C-3 0 -3 0 0 0 Z " fill="#CBCBCC" transform="translate(127,146)"/>
<path d="M0 0 C2.97 0.495 2.97 0.495 6 1 C6 1.66 6 2.32 6 3 C4.68 3 3.36 3 2 3 C1.67 3.99 1.34 4.98 1 6 C0.34 6 -0.32 6 -1 6 C-0.67 4.02 -0.34 2.04 0 0 Z " fill="#DCDCDC" transform="translate(132,119)"/>
<path d="M0 0 C2.875 0.3125 2.875 0.3125 6 1 C6.66 1.99 7.32 2.98 8 4 C5.69 3.67 3.38 3.34 1 3 C0.67 2.01 0.34 1.02 0 0 Z " fill="#B8AF47" transform="translate(174,38)"/>
<path d="M0 0 C-0.66 2.64 -1.32 5.28 -2 8 C-3.65 7.67 -5.3 7.34 -7 7 C-6.01 6.01 -5.02 5.02 -4 4 C-4.33 3.34 -4.66 2.68 -5 2 C-2 0 -2 0 0 0 Z " fill="#8B856E" transform="translate(169,28)"/>
<path d="M0 0 C4.10958767 1.45044271 7.43258745 3.51110752 11 6 C10.01 6.495 10.01 6.495 9 7 C7.08984375 6.07421875 7.08984375 6.07421875 4.9375 4.6875 C4.22464844 4.23761719 3.51179687 3.78773437 2.77734375 3.32421875 C1 2 1 2 0 0 Z " fill="#5F4E24" transform="translate(179,38)"/>
</svg>
